<?xml version="1.0" encoding="UTF-8"?>
<svg version="1.1" xmlns="http://www.w3.org/2000/svg" width="2000" height="819">
<path d="M0 0 C658.68 0 1317.36 0 1996 0 C1996 254.76 1996 509.52 1996 772 C1940.23 772 1884.46 772 1827 772 C1827 765.73 1827 759.46 1827 753 C1876.17 753 1925.34 753 1976 753 C1976 511.11 1976 269.22 1976 20 C1330.52 20 685.04 20 20 20 C20 261.89 20 503.78 20 753 C68.51 753 117.02 753 167 753 C167 759.27 167 765.54 167 772 C111.89 772 56.78 772 0 772 C0 517.24 0 262.48 0 0 Z " fill="#B968D4" transform="translate(2,2)"/>
<path d="M0 0 C15.90570702 13.10173683 25.56343091 29.58586884 28.50390625 50.0625 C30.31701582 74.21127831 27.41872365 98.06784951 11.2578125 117.12109375 C10.67902344 117.76175781 10.10023438 118.40242187 9.50390625 119.0625 C8.93542969 119.73410156 8.36695313 120.40570313 7.78125 121.09765625 C-0.82976359 130.58622536 -11.82612946 135.07959643 -23.78222656 138.69042969 C-31.57027328 141.16128222 -37.917964 145.30340291 -44.49609375 150.0625 C-40.93578039 151.38098524 -37.37248709 152.69122561 -33.80859375 154 C-32.80119141 154.37318359 -31.79378906 154.74636719 -30.75585938 155.13085938 C-29.77939453 155.48857422 -28.80292969 155.84628906 -27.796875 156.21484375 C-26.90137939 156.54476318 -26.00588379 156.87468262 -25.08325195 157.21459961 C-16.44075263 160.04704277 -6.27516278 160.87043622 2.06640625 156.875 C5.81326555 154.71453747 8.69527016 152.3392421 11.50390625 149.0625 C16.25390625 150.9375 16.25390625 150.9375 18.50390625 152.0625 C15.78956667 162.64842438 7.85699071 171.3795563 -0.76953125 177.73828125 C-8.55342876 182.32845337 -17.20695993 182.46871769 -25.86767578 180.53222656 C-32.5960574 178.76753566 -39.17800919 176.54418653 -45.75439453 174.28759766 C-55.93837989 170.80050124 -65.77329712 167.48402306 -76.30859375 171.6875 C-80.57432608 173.85150289 -84.06673532 176.7544372 -87.49609375 180.0625 C-89.93359375 179.375 -89.93359375 179.375 -92.49609375 178.0625 C-93.38671875 175.77734375 -93.38671875 175.77734375 -93.49609375 173.0625 C-85.36232486 159.82046115 -69.57731107 152.10887049 -56.29858398 145.06469727 C-54.64858902 144.14728845 -53.06691178 143.10971202 -51.49609375 142.0625 C-52.33527344 141.91554688 -52.33527344 141.91554688 -53.19140625 141.765625 C-74.19421118 137.84870318 -92.24294897 130.48486324 -105.49609375 113.0625 C-118.93345845 93.38235962 -122.38488986 69.54787584 -118.87890625 46.22265625 C-116.06146444 31.37284399 -108.84588944 18.00320098 -98.49609375 7.0625 C-97.83351563 6.34707031 -97.1709375 5.63164062 -96.48828125 4.89453125 C-72.36048926 -18.82042779 -26.50435384 -19.74000029 0 0 Z M-77.49609375 11.0625 C-92.08358126 29.82374456 -92.72576666 57.60430612 -89.95703125 80.15625 C-87.41716776 97.0696412 -81.52137406 113.42378178 -68.49609375 125.0625 C-59.7173006 130.94263503 -49.30172643 133.44269359 -38.8671875 131.59765625 C-32.09024922 130.00474586 -26.92324017 127.39387972 -21.49609375 123.0625 C-20.89152344 122.59457031 -20.28695312 122.12664062 -19.6640625 121.64453125 C-8.10759363 111.49675159 -3.00503542 93.71434306 -0.49609375 79.0625 C0.81667379 54.81807034 0.19521389 28.41622481 -16.49609375 9.0625 C-23.51214616 1.66024287 -31.45035105 -3.42645326 -41.78125 -4.17578125 C-56.62354718 -4.4674086 -67.59681706 -0.25761405 -77.49609375 11.0625 Z " fill="#D269C6" transform="translate(679.49609375,331.9375)"/>
<path d="M0 0 C6.26113066 -0.28010868 12.52063665 -0.47200356 18.78662109 -0.60424805 C20.91516473 -0.65939418 23.04329482 -0.7343382 25.17041016 -0.82983398 C42.61996484 -1.59330304 42.61996484 -1.59330304 47.81176758 1.88232422 C49.95957419 4.79125617 51.42665582 7.74417138 53 11 C54.73911338 13.75087795 56.60339609 16.41371809 58.44921875 19.09375 C59.46142974 20.61086767 60.47028534 22.13022846 61.47607422 23.65161133 C64.84909126 28.74443137 68.22957455 33.83224508 71.61328125 38.91796875 C72.2100769 39.81513107 72.80687256 40.7122934 73.42175293 41.63664246 C81.54114447 53.8314645 89.7486133 65.96700561 97.9519043 78.10546875 C104.96730906 88.48847213 111.94928793 98.89274134 118.88760376 109.32743835 C119.92397307 110.88568846 120.96192416 112.44288623 122 114 C122.33 79.02 122.66 44.04 123 8 C116.73 8 110.46 8 104 8 C104 5.36 104 2.72 104 0 C119.51 0 135.02 0 151 0 C151 2.64 151 5.28 151 8 C145.06 8 139.12 8 133 8 C133 54.86 133 101.72 133 150 C114 150 114 150 109.36328125 146.046875 C107.74414062 143.4765625 107.74414062 143.4765625 106.3125 140.75 C105.5400293 139.46996094 105.5400293 139.46996094 104.75195312 138.1640625 C103.68802878 136.39744711 102.64962744 134.61524333 101.63549805 132.81958008 C98.67544381 127.71648015 95.31451245 122.87727686 92 118 C91.35474365 117.04657715 90.7094873 116.0931543 90.04467773 115.11083984 C88.05486505 112.1751488 86.05943634 109.2433494 84.0625 106.3125 C82.94779478 104.67491505 81.83309057 103.03732941 80.71844482 101.39970398 C79.57206002 99.71557867 78.42544032 98.03161345 77.27880859 96.34765625 C74.3513318 92.04776386 71.42737533 87.74547956 68.50317383 83.44335938 C60.01380884 70.95424424 51.50932001 58.47552849 43 46 C38.05 38.74 33.1 31.48 28 24 C27.67 62.61 27.34 101.22 27 141 C33.6 141 40.2 141 47 141 C47 143.97 47 146.94 47 150 C31.49 150 15.98 150 0 150 C0 147.03 0 144.06 0 141 C5.61 141 11.22 141 17 141 C17 97.11 17 53.22 17 8 C11.39 8 5.78 8 0 8 C0 5.36 0 2.72 0 0 Z " fill="#A067E3" transform="translate(1276,321)"/>
<path d="M0 0 C13.86 0 27.72 0 42 0 C42.33 36.63 42.66 73.26 43 111 C47.95 106.71 52.9 102.42 58 98 C63.5 93.5 63.5 93.5 66.09375 91.40234375 C70.4549228 87.79734204 74.71030653 84.07196233 78.96289062 80.33984375 C79.57326172 79.80617188 80.18363281 79.2725 80.8125 78.72265625 C81.35519531 78.24578369 81.89789062 77.76891113 82.45703125 77.27758789 C84 76 84 76 87 74 C82.05 73.67 77.1 73.34 72 73 C72 70.03 72 67.06 72 64 C86.52 64 101.04 64 116 64 C116 66.97 116 69.94 116 73 C114.65808594 72.95166016 114.65808594 72.95166016 113.2890625 72.90234375 C106.50905408 72.96739714 101.9047346 73.26973361 96.8125 78 C95.20478526 79.66324436 93.60071766 81.33002052 92 83 C90.12682706 84.58959537 88.23064035 86.15246649 86.3125 87.6875 C82.14738503 91.0598232 78.04975414 94.49021308 74 98 C75.31949667 101.61880172 76.91493294 104.56696673 79.1328125 107.7109375 C79.76670898 108.61529541 80.40060547 109.51965332 81.05371094 110.45141602 C81.73723633 111.41619873 82.42076172 112.38098145 83.125 113.375 C84.57043652 115.43350667 86.01574515 117.49210315 87.4609375 119.55078125 C88.58000488 121.13947021 88.58000488 121.13947021 89.72167969 122.76025391 C93.41669017 128.01451764 97.08284249 133.28877825 100.75 138.5625 C101.74990967 139.99698486 101.74990967 139.99698486 102.77001953 141.46044922 C103.39763184 142.36166504 104.02524414 143.26288086 104.671875 144.19140625 C105.2606543 145.02671875 105.84943359 145.86203125 106.45605469 146.72265625 C108 149 108 149 109.08300781 150.94921875 C110.05211381 152.81132201 110.05211381 152.81132201 112 155 C115.47869124 155.93738807 115.47869124 155.93738807 119.25 155.875 C121.14492187 155.93300781 121.14492187 155.93300781 123.078125 155.9921875 C124.52445313 155.99605469 124.52445313 155.99605469 126 156 C126 158.97 126 161.94 126 165 C107.19 165 88.38 165 69 165 C69 162.03 69 159.06 69 156 C72.96 156 76.92 156 81 156 C75.68049582 147.99070889 70.34580415 139.99175786 65 132 C64.40429199 131.10667969 63.80858398 130.21335937 63.19482422 129.29296875 C61.67878606 127.02366186 60.15386301 124.76067841 58.625 122.5 C57.95730591 121.49646484 57.95730591 121.49646484 57.27612305 120.47265625 C56.23585063 118.94519882 55.12531753 117.46593088 54 116 C50.19051826 116 47.70746509 118.72694618 45.00439453 121.18359375 C40.98300113 126.8341168 41.80654028 133.83349188 41.9375 140.5 C41.93442084 142.00522222 41.92729469 143.51044189 41.91601562 145.015625 C41.88977684 148.68098151 41.94667924 152.33153203 42 156 C46.62 156 51.24 156 56 156 C56 158.97 56 161.94 56 165 C37.52 165 19.04 165 0 165 C0 162.03 0 159.06 0 156 C4.95 156 9.9 156 15 156 C15 107.16 15 58.32 15 8 C10.05 8 5.1 8 0 8 C0 5.36 0 2.72 0 0 Z " fill="#B468D8" transform="translate(1022,306)"/>
<path d="M0 0 C13.2 0 26.4 0 40 0 C40.02578125 5.61 40.0515625 11.22 40.078125 17 C40.10330527 20.56384716 40.12964718 24.12761044 40.16015625 27.69140625 C40.20842243 33.34228789 40.25249291 38.99297527 40.27099609 44.64404297 C40.28619161 49.20247557 40.32068828 53.7603984 40.36830902 58.31860352 C40.38309303 60.05358437 40.3910393 61.78863801 40.39188385 63.52368164 C40.39426433 65.96294871 40.42142845 68.40081923 40.45410156 70.83984375 C40.4490712 71.54978989 40.44404083 72.25973602 40.43885803 72.99119568 C40.55054954 78.41581307 42.11826669 82.49615898 45 87 C49.85017765 91.55622749 55.20222223 91.3877691 61.5625 91.359375 C66.77705614 90.81421686 70.58506741 88.68310821 75 86 C76.09634766 85.51660156 76.09634766 85.51660156 77.21484375 85.0234375 C79.34878313 84.06321952 79.34878313 84.06321952 80 81 C80.11835778 78.68536296 80.17701089 76.36753705 80.20532227 74.05004883 C80.21522186 73.34735367 80.22512146 72.64465851 80.23532104 71.92066956 C80.26689234 69.59949099 80.29167613 67.27829195 80.31640625 64.95703125 C80.33697956 63.34705577 80.35797613 61.73708564 80.37937927 60.12712097 C80.43456106 55.89063862 80.48398749 51.65410784 80.53222656 47.4175415 C80.58247001 43.09407239 80.63814123 38.77067356 80.69335938 34.44726562 C80.80089336 25.96490158 80.90184728 17.48247779 81 9 C75.72 9 70.44 9 65 9 C65 6.03 65 3.06 65 0 C79.19 0 93.38 0 108 0 C108 30.36 108 60.72 108 92 C111.96 92 115.92 92 120 92 C120 94.97 120 97.94 120 101 C107.13 101 94.26 101 81 101 C80.505 97.535 80.505 97.535 80 94 C79.40574219 94.39832031 78.81148437 94.79664063 78.19921875 95.20703125 C66.06123332 102.96552582 54.844901 104.47270467 40.8125 101.75 C35.40762833 100.49044019 30.69303372 98.97187221 26 96 C25.13375 95.46375 24.2675 94.9275 23.375 94.375 C14.02573703 85.02573703 12.98932584 73.72073873 12.77294922 60.99462891 C12.77325933 58.57191702 12.78416068 56.14918744 12.8046875 53.7265625 C12.8075174 52.43680511 12.81034729 51.14704773 12.81326294 49.81820679 C12.82078424 46.44156682 12.84032884 43.06510766 12.8626709 39.6885376 C12.88338214 36.22207076 12.89231785 32.75557379 12.90234375 29.2890625 C12.92358971 22.52596133 12.95867298 15.76300804 13 9 C8.71 9 4.42 9 0 9 C0 6.03 0 3.06 0 0 Z " fill="#C769CC" transform="translate(722,370)"/>
<path d="M0 0 C1.36705746 1.00350484 2.72271157 2.02286784 4.0625 3.0625 C5.09375 3.805 6.125 4.5475 7.1875 5.3125 C16.49137782 14.21186139 21.79308914 25.82892814 22.30078125 38.6875 C22.65276863 55.79313116 19.96716052 70.19416831 8.0078125 83.21484375 C-2.95244591 93.62488839 -16.89883879 97.62093849 -31.76171875 97.3125 C-46.96536458 96.11565703 -58.44516091 91.11913296 -68.9375 80.0625 C-79.87552017 67.11673617 -81.91802732 52.48727184 -80.9375 36.0625 C-79.3723727 22.90968713 -73.27477844 11.42987965 -62.9375 3.0625 C-59.73665015 0.73362448 -56.47985482 -1.17414812 -52.9375 -2.9375 C-52.11378906 -3.35257812 -51.29007813 -3.76765625 -50.44140625 -4.1953125 C-35.08653417 -10.56903299 -13.9609496 -8.90096786 0 0 Z M-45.42578125 8.6015625 C-55.65624423 21.3368291 -54.1382286 43.29975556 -52.703125 58.55371094 C-51.35559875 68.91281901 -49.3242112 78.22857943 -40.78125 84.87109375 C-35.49840488 88.28479663 -30.33348029 88.39339058 -24.296875 87.59765625 C-18.16570592 86.20697717 -14.50500299 81.97986899 -10.9375 77.0625 C-5.63767426 67.24800788 -5.57120319 55.6629562 -5.625 44.75 C-5.62991455 43.56881592 -5.6348291 42.38763184 -5.63989258 41.1706543 C-5.8063258 28.74790771 -6.2026745 15.7973255 -15.48828125 6.51171875 C-20.89570291 1.74835724 -25.68916973 1.65310348 -32.63671875 1.72265625 C-38.2666759 2.30230864 -41.5693689 4.61356653 -45.42578125 8.6015625 Z " fill="#9667E9" transform="translate(1520.9375,375.9375)"/>
<path d="M0 0 C2.20257356 3.30386035 2.23808454 3.97860574 1.875 7.75 C1.81054688 8.56984375 1.74609375 9.3896875 1.6796875 10.234375 C-0.00014754 17.06956587 -4.35053561 21.78703281 -9.21788025 26.59210205 C-9.83847008 27.21666629 -10.45905991 27.84123052 -11.09845549 28.48472095 C-13.16787432 30.5637202 -15.24778612 32.63188184 -17.32788086 34.70019531 C-18.81850594 36.19324971 -20.30848493 37.68694937 -21.79786682 39.1812439 C-25.83639494 43.22916412 -29.88425541 47.26763062 -33.93413997 51.30418491 C-38.17267903 55.53139582 -42.40349002 59.76632895 -46.63539124 64.00018311 C-53.74122995 71.10690421 -60.85302084 78.20762539 -67.96850586 85.3046875 C-76.19551487 93.51051758 -84.41364728 101.72515438 -92.62695402 109.94469762 C-100.52983267 117.85326972 -108.43836797 125.75616055 -116.34970284 133.65627289 C-119.71616782 137.01809291 -123.08074047 140.38179023 -126.44383049 143.74698639 C-130.40282196 147.70786074 -134.36677131 151.66370602 -138.33461571 155.61571121 C-139.79039369 157.06724517 -141.24447756 158.52048046 -142.69674301 159.97552872 C-144.67828795 161.96029432 -146.66587588 163.93880409 -148.65513611 165.91583252 C-149.22926756 166.4937433 -149.80339902 167.07165408 -150.3949284 167.6670773 C-155.51106523 172.72764566 -160.01876834 175.06076898 -167 177 C-168.485 177.99 -168.485 177.99 -170 179 C-173 179.4375 -173 179.4375 -176 179 C-177.875 176.5 -177.875 176.5 -179 174 C-178.566875 173.360625 -178.13375 172.72125 -177.6875 172.0625 C-176.25279037 169.45876771 -175.53288811 167.49811693 -174.75 164.6875 C-171.20368133 153.86481082 -159.45012904 145.26745144 -151.57861328 137.35400391 C-150.11421196 135.87841174 -148.64997272 134.40265872 -147.18588257 132.92675781 C-142.40143596 128.10596694 -137.61150508 123.29064784 -132.8203125 118.4765625 C-131.59541556 117.24574676 -131.59541556 117.24574676 -130.34577322 115.99006605 C-122.64008347 108.24799868 -114.93191312 100.50840715 -107.21867561 92.77385902 C-97.36945776 82.89701785 -87.53206617 73.00870789 -77.7100774 63.10478652 C-70.79127818 56.13023632 -63.85915397 49.16910835 -56.91704738 42.21775758 C-52.77483951 38.06929216 -48.63877794 33.91510148 -44.51700211 29.74632645 C-40.6432074 25.82890038 -36.75318958 21.92834941 -32.85013199 18.04008484 C-31.42224802 16.61187204 -30.00033064 15.17766475 -28.58495331 13.73705673 C-26.6490635 11.76849643 -24.69267055 9.82282813 -22.72976685 7.8812561 C-22.17711501 7.3088965 -21.62446318 6.7365369 -21.05506432 6.14683306 C-15.28637299 0.53474664 -7.93220218 -0.80940839 0 0 Z " fill="#E96AB9" transform="translate(388,281)"/>
<path d="M0 0 C9.87014251 8.32923418 14.56673902 17.55739063 16.625 30.25 C16.625 34.21 16.625 38.17 16.625 42.25 C-6.475 42.25 -29.575 42.25 -53.375 42.25 C-52.17513188 63.05131813 -52.17513188 63.05131813 -41.40625 80.1328125 C-33.99852899 85.68860326 -25.49057515 86.87546001 -16.4375 85.8125 C-7.06039074 83.91240154 1.12427597 79.20565499 7.625 72.25 C10.99220387 73.64332574 12.6109524 75.2289286 14.625 78.25 C7.79517118 88.49474323 -5.12412426 94.11609578 -16.8125 96.5625 C-32.6634812 98.89819537 -47.9564095 96.34272252 -61.375 87.25 C-71.93998312 79.33044847 -78.23123679 69.40093174 -80.96484375 56.45703125 C-83.08303218 39.89481508 -81.08394953 25.16616099 -71.375 11.25 C-55.77548599 -8.54938316 -21.0226579 -14.54497692 0 0 Z M-46.765625 10.80859375 C-51.28594425 17.66587416 -52.37255457 25.23043657 -53.375 33.25 C-39.185 33.25 -24.995 33.25 -10.375 33.25 C-10.375 22.65553645 -11.00447257 13.30615789 -18.375 5.25 C-28.1386991 -1.95653981 -39.71461372 2.33802047 -46.765625 10.80859375 Z " fill="#8966F1" transform="translate(1723.375,375.75)"/>
<path d="M0 0 C0.84691406 -0.01611328 1.69382812 -0.03222656 2.56640625 -0.04882812 C9.80558011 -0.05437114 16.05036655 1.26274437 22.125 5.3125 C23.115 5.3125 24.105 5.3125 25.125 5.3125 C25.516875 4.4875 25.90875 3.6625 26.3125 2.8125 C26.910625 1.9875 27.50875 1.1625 28.125 0.3125 C30.765 0.3125 33.405 0.3125 36.125 0.3125 C36.125 9.5525 36.125 18.7925 36.125 28.3125 C32.825 28.3125 29.525 28.3125 26.125 28.3125 C25.58875 26.765625 25.0525 25.21875 24.5 23.625 C21.9127288 17.19767365 18.99146328 14.85598023 12.875 11.5625 C4.00587212 8.60612404 -4.34367223 8.60568003 -12.8125 12.75 C-15.11477552 14.31654743 -15.11477552 14.31654743 -16.875 17.3125 C-17.4594855 21.73789024 -17.34405248 23.65446449 -14.72265625 27.33203125 C-12.11511864 30.28214487 -9.44128593 31.96554331 -5.875 33.6875 C-4.99279785 34.11675781 -4.99279785 34.11675781 -4.09277344 34.5546875 C1.43007393 37.16028097 7.14593292 39.21276788 12.875 41.3125 C24.80421347 45.72321282 33.93202691 50.71635961 40.15234375 62.2109375 C43.34439633 69.41879815 43.15864812 77.19928681 40.5625 84.5625 C36.19756981 94.10795287 28.59360664 98.42826163 19.125 102.3125 C7.20713764 106.38915013 -6.52528967 104.83257863 -17.98828125 100 C-20.3289548 98.83462929 -22.61652561 97.62907608 -24.875 96.3125 C-25.865 98.2925 -26.855 100.2725 -27.875 102.3125 C-31.175 102.3125 -34.475 102.3125 -37.875 102.3125 C-37.875 92.4125 -37.875 82.5125 -37.875 72.3125 C-34.575 72.3125 -31.275 72.3125 -27.875 72.3125 C-27.215 73.818125 -26.555 75.32375 -25.875 76.875 C-21.67719955 85.18829109 -15.89197303 89.3821223 -7.26953125 92.5859375 C0.8659932 95.05446531 9.17461529 95.39784101 17.203125 92.3515625 C20.45211501 90.59499473 21.70542687 88.66785467 23.125 85.3125 C23.61582791 81.74540367 23.61582791 81.74540367 22.125 78.3125 C17.19191584 73.49230997 11.20689513 70.74360231 4.875 68.25 C4.04162109 67.90839844 3.20824219 67.56679688 2.34960938 67.21484375 C-1.21490943 65.75700802 -4.79192874 64.34415938 -8.390625 62.97265625 C-19.84436257 58.52009073 -29.8616476 51.80409114 -35.75 40.8125 C-38.11194393 33.57109106 -38.47088109 23.85734942 -35.375 16.8125 C-30.43248717 8.80702147 -22.39499148 4.22830229 -13.74609375 1.2265625 C-9.07877885 0.12449218 -4.7759113 -0.01800872 0 0 Z " fill="#8266F6" transform="translate(1799.875,368.6875)"/>
<path d="M0 0 C0 11.88 0 23.76 0 36 C10.89 36 21.78 36 33 36 C33 38.97 33 41.94 33 45 C22.11 45 11.22 45 0 45 C0.12016704 56.84191731 0.12016704 56.84191731 0.2578125 68.68359375 C0.31789993 73.51997889 0.37602923 78.35632725 0.421875 83.19287109 C0.45900586 87.09632658 0.50543725 90.99957487 0.55806351 94.9028511 C0.57646097 96.38498897 0.59162171 97.86717099 0.60334396 99.34937668 C0.10135369 113.195448 0.10135369 113.195448 5 125.5625 C9.43409288 128.74950426 13.6784751 128.57488006 19 128 C22.69864927 126.74853073 25.8631429 125.17021232 28.59765625 122.35546875 C29.06042969 121.90816406 29.52320313 121.46085937 30 121 C32.65694438 121.16605902 33.76383679 121.78913999 35.75 123.5625 C36.1625 124.036875 36.575 124.51125 37 125 C34.75022209 130.53323757 30.0306545 133.13916077 25 136 C13.8559919 140.57929069 1.58171267 140.14027115 -9.63671875 136.03515625 C-17.25012823 132.65521213 -20.90308174 128.20400936 -24.56005859 120.87231445 C-27.03975485 114.1216421 -26.36704575 106.77593253 -26.29296875 99.6875 C-26.28736545 98.10710047 -26.28309882 96.52669569 -26.28010559 94.94628906 C-26.26871449 90.8099703 -26.23929762 86.67397338 -26.20599365 82.53778076 C-26.17516826 78.30778353 -26.16157374 74.07773371 -26.14648438 69.84765625 C-26.11442163 61.56495736 -26.06329582 53.28251885 -26 45 C-29.96 45 -33.92 45 -38 45 C-38 42.03 -38 39.06 -38 36 C-34.04 36 -30.08 36 -26 36 C-26 26.1 -26 16.2 -26 6 C-23.525 5.566875 -21.05 5.13375 -18.5 4.6875 C-12.62789802 3.6249066 -5.66441856 0 0 0 Z " fill="#9066ED" transform="translate(1593,334)"/>
<path d="M0 0 C3.73980474 1.35269533 4.8772985 2.67788325 6.9375 6.0625 C8.63838754 11.036641 9.22696086 15.57365356 9.19819641 20.79110718 C9.20202196 21.53802814 9.20584751 22.2849491 9.20978898 23.05450404 C9.22005326 25.54080352 9.21613942 28.02686923 9.2121582 30.51318359 C9.21650833 32.30254834 9.22169249 34.09191123 9.22764587 35.88127136 C9.24101505 40.7305011 9.24161683 45.57965281 9.23908257 50.42889738 C9.2380114 54.48197702 9.2429 58.53504097 9.247688 62.58811724 C9.25877609 72.15283234 9.25922457 81.71750815 9.25317383 91.28222656 C9.2471345 101.13826326 9.25944563 110.99415719 9.2807439 120.85016954 C9.29837679 129.32257729 9.30435857 137.79493968 9.30110615 146.2673651 C9.29929577 151.32296038 9.30190499 156.37845382 9.31582069 161.43403244 C9.32842178 166.18980354 9.32643335 170.94535257 9.31340981 175.70112038 C9.31104941 177.44213372 9.31375941 179.18316281 9.32203293 180.9241581 C9.4110521 201.11954897 9.4110521 201.11954897 3.625 207.6875 C0.9375 209.0625 0.9375 209.0625 -2.125 209.125 C-5.89555986 207.76118047 -7.01358672 206.5017473 -9.0625 203.0625 C-10.65926233 197.66019826 -11.31434289 192.96494831 -11.32319641 187.29629517 C-11.32702196 186.55739245 -11.33084751 185.81848973 -11.33478898 185.05719602 C-11.34503192 182.60397434 -11.34114356 180.15099053 -11.3371582 177.69775391 C-11.34150951 175.92956833 -11.34669406 174.16138465 -11.35264587 172.39320374 C-11.36600222 167.60594726 -11.36661828 162.8187699 -11.36408257 158.03149843 C-11.36301055 154.02816937 -11.36790217 150.02485616 -11.372688 146.02153051 C-11.38377161 136.57326081 -11.38422707 127.12503087 -11.37817383 117.67675781 C-11.37213469 107.94511958 -11.38444618 98.21362596 -11.4057439 88.48201239 C-11.42338429 80.11232797 -11.4293574 71.74268947 -11.42610615 63.37298715 C-11.424297 58.38053158 -11.4268927 53.38817917 -11.44082069 48.39574051 C-11.45343407 43.69904801 -11.45142181 39.00258025 -11.43840981 34.30589104 C-11.43605209 32.58787267 -11.4387497 30.86983832 -11.44703293 29.1518383 C-11.54114563 8.10525032 -11.54114563 8.10525032 -5.75 1.375 C-3.0625 0.0625 -3.0625 0.0625 0 0 Z " fill="#DC6ABF" transform="translate(503.0625,304.9375)"/>
<path d="M0 0 C4.31449945 3.63807369 5.98446831 7.06757237 6.78125 12.5546875 C7.13815342 18.21415601 5.45078035 21.35246073 2.15625 25.8671875 C-2.24192684 29.0766679 -6.7098066 28.77533141 -11.84375 27.9921875 C-15.81764487 26.26766708 -18.37493192 24.50968446 -20.15625 20.5546875 C-21.01708733 15.90756563 -21.17114367 11.58447485 -19.0234375 7.2890625 C-17.65625 5.3671875 -17.65625 5.3671875 -15.15625 2.5546875 C-23.6872283 0.31705385 -32.94068572 -1.28062143 -41.3125 2.390625 C-48.72104283 7.06805247 -52.62705739 14.88356747 -54.83984375 23.08984375 C-58.13704505 39.2574998 -58.15243178 59.21301122 -49.40625 73.7421875 C-45.69768395 78.67750568 -40.960392 81.6199735 -35.15625 83.5546875 C-23.34917768 84.33079893 -12.47768808 84.28236517 -2.96875 76.3046875 C-2.040625 75.3971875 -1.1125 74.4896875 -0.15625 73.5546875 C3.21095387 74.94801324 4.8297024 76.5336161 6.84375 79.5546875 C-2.94807615 90.57732978 -13.81952619 94.42788586 -28.37890625 95.875 C-43.36302765 96.43203054 -57.69463971 91.70965525 -69.40625 82.3671875 C-79.44608327 73.00627738 -84.48187651 60.04188343 -85.34765625 46.578125 C-85.87835736 31.41034494 -82.45149998 17.87445042 -72.1953125 6.3515625 C-53.95362533 -11.41543392 -20.80975182 -15.15492795 0 0 Z " fill="#BB68D3" transform="translate(1008.15625,377.4453125)"/>
<path d="M0 0 C1.93627769 -0.10807131 3.87427756 -0.1856225 5.8125 -0.25 C7.43091797 -0.31960938 7.43091797 -0.31960938 9.08203125 -0.390625 C12 0 12 0 13.57502747 1.69592285 C15.12635242 4.2043027 15.91699881 6.41933428 16.7175293 9.25585938 C17.01761398 10.30374634 17.31769867 11.3516333 17.62687683 12.43127441 C17.93949966 13.55739136 18.2521225 14.6835083 18.57421875 15.84375 C18.90291458 17.0049939 19.23161041 18.16623779 19.57026672 19.3626709 C20.26264653 21.81597625 20.95079288 24.27047976 21.63500977 26.72607422 C22.68426743 30.48840896 23.74827507 34.2463357 24.81445312 38.00390625 C25.48525373 40.38777374 26.15520449 42.77188057 26.82421875 45.15625 C27.14291428 46.28236694 27.4616098 47.40848389 27.78996277 48.56872559 C28.08059097 49.61661255 28.37121918 50.66449951 28.6706543 51.74414062 C28.92807907 52.66473267 29.18550385 53.58532471 29.45072937 54.53381348 C30 57 30 57 30 61 C30.66 61 31.32 61 32 61 C32.25974609 59.74227783 32.51949219 58.48455566 32.78710938 57.1887207 C34.0136364 51.68069834 35.68036008 46.34949179 37.40625 40.98046875 C37.73161743 39.95947586 38.05698486 38.93848297 38.39221191 37.8865509 C39.07612059 35.74382089 39.7619823 33.60171335 40.44970703 31.46020508 C41.50190151 28.1815749 42.54628901 24.90052964 43.58984375 21.61914062 C44.25735009 19.53110212 44.9253032 17.44320637 45.59375 15.35546875 C46.06101501 13.88668526 46.06101501 13.88668526 46.53771973 12.38822937 C46.83142456 11.47660538 47.12512939 10.56498138 47.42773438 9.62573242 C47.68373413 8.82681076 47.93973389 8.0278891 48.20349121 7.20475769 C50.32273568 1.33863216 50.32273568 1.33863216 53 0 C56.4375 -0.3125 56.4375 -0.3125 60 0 C62.72601594 2.84842676 63.81285547 5.87877892 64.99291992 9.59472656 C65.35306686 10.71558655 65.71321381 11.83644653 66.08427429 12.99127197 C66.46251846 14.19555847 66.84076263 15.39984497 67.23046875 16.640625 C67.62575272 17.87794373 68.02103668 19.11526245 68.42829895 20.39007568 C69.47579934 23.66926598 70.51393052 26.95134856 71.55010986 30.23413086 C72.61042415 33.58757913 73.67961202 36.93819458 74.74804688 40.2890625 C76.84070311 46.8566364 78.92347064 53.4273099 81 60 C83.32801103 53.21537296 85.34150262 46.38580132 87.25 39.47265625 C87.86403319 37.27784081 88.47863283 35.08318377 89.09375 32.88867188 C90.05362487 29.45776111 91.01005108 26.02604689 91.95703125 22.59155273 C92.87780379 19.25730465 93.81262374 15.92726858 94.75 12.59765625 C95.03133789 11.56439713 95.31267578 10.531138 95.60253906 9.46656799 C95.87291992 8.51475143 96.14330078 7.56293488 96.421875 6.58227539 C96.65487305 5.74338272 96.88787109 4.90449005 97.12792969 4.04017639 C98 2 98 2 101 0 C104.67086855 -0.26562001 108.32267964 -0.08652518 112 0 C109.7480477 9.52548232 107.00479948 18.87405051 104.1484375 28.23046875 C103.68412776 29.75786828 103.21998902 31.28531981 102.75601196 32.81282043 C101.79143512 35.98591716 100.82471909 39.15835179 99.85644531 42.33032227 C98.61364103 46.4023104 97.37647754 50.4759878 96.14087486 54.55016613 C95.18751407 57.69142255 94.23116006 60.83176136 93.27388382 63.97182655 C92.81600981 65.47510308 92.35909472 66.97867201 91.90314865 68.48253441 C91.2697089 70.57027742 90.63224096 72.65674703 89.99365234 74.74291992 C89.63185883 75.93028244 89.27006531 77.11764496 88.89730835 78.34098816 C88 81 88 81 87 82 C85.14712498 82.07226502 83.29166122 82.0838122 81.4375 82.0625 C80.42558594 82.05347656 79.41367188 82.04445313 78.37109375 82.03515625 C77.58863281 82.02355469 76.80617188 82.01195312 76 82 C69.19927814 61.70856763 62.44077424 41.40927564 56 21 C49.18983782 41.28815197 42.53016318 61.62001164 36 82 C32.04 82 28.08 82 24 82 C20.86588666 71.75298412 17.73625245 61.5046122 14.61236572 51.25447369 C13.16175677 46.49522359 11.70959573 41.7364586 10.25390625 36.97875977 C8.84974873 32.38928253 7.44964404 27.79858712 6.05236816 23.20701027 C5.51795298 21.45344647 4.98206667 19.70033033 4.44470215 17.94766808 C3.69363706 15.4971158 2.94776799 13.04503936 2.203125 10.5925293 C1.97870728 9.86460678 1.75428955 9.13668427 1.52307129 8.38670349 C0.64510213 5.47879188 0 3.05675877 0 0 Z " fill="#9B67E6" transform="translate(1369,713)"/>
<path d="M0 0 C1.93681161 -0.08107583 3.8745934 -0.13922475 5.8125 -0.1875 C6.89144531 -0.22230469 7.97039062 -0.25710938 9.08203125 -0.29296875 C12 0 12 0 13.56929016 1.17573547 C15.40439086 3.5156293 16.00505346 5.61799031 16.80932617 8.48120117 C17.12943161 9.60213669 17.44953705 10.7230722 17.77934265 11.87797546 C18.11383926 13.08742325 18.44833588 14.29687103 18.79296875 15.54296875 C19.14386063 16.78170242 19.4947525 18.0204361 19.85627747 19.29670715 C20.78730039 22.58387077 21.70637285 25.87425997 22.62298584 29.16546631 C23.5611157 32.52575434 24.51052393 35.88285061 25.45898438 39.24023438 C27.31703217 45.82374527 29.16247282 52.41073306 31 59 C32.87138463 56.19292306 33.72174094 54.12708471 34.72412109 50.94946289 C35.05141205 49.92152115 35.378703 48.89357941 35.71591187 47.83448792 C36.06489532 46.72508347 36.41387878 45.61567902 36.7734375 44.47265625 C37.52299739 42.13071847 38.27301146 39.78892601 39.0234375 37.44726562 C40.20249032 33.75104812 41.37776005 30.05375043 42.54492188 26.35375977 C43.6727187 22.78565213 44.81569553 19.22269647 45.9609375 15.66015625 C46.3058725 14.55277603 46.6508075 13.44539581 47.00619507 12.30445862 C47.33979034 11.27336472 47.67338562 10.24227081 48.01708984 9.17993164 C48.44772232 7.82116661 48.44772232 7.82116661 48.88705444 6.43495178 C50.18309334 3.59942025 51.60034763 1.97731256 54 0 C57.0625 -0.4375 57.0625 -0.4375 60 0 C62.89278487 2.23902828 63.76942868 4.60513298 64.86938477 8.03466797 C65.20305557 9.05938202 65.53672638 10.08409607 65.88050842 11.13986206 C66.23060471 12.24612946 66.58070099 13.35239685 66.94140625 14.4921875 C67.30975082 15.63027863 67.6780954 16.76836975 68.05760193 17.94094849 C69.23451825 21.58292092 70.39888274 25.22875909 71.5625 28.875 C72.73222546 32.51323792 73.90449642 36.15064266 75.07810974 39.78762817 C75.80771417 42.05159088 76.53459083 44.31643489 77.25843811 46.58224487 C77.58895676 47.61326324 77.9194754 48.64428162 78.26000977 49.70654297 C78.69277977 51.06197708 78.69277977 51.06197708 79.1342926 52.4447937 C80.00154505 55.00456035 80.97302822 57.50051784 82 60 C82.19378738 59.29256149 82.38757477 58.58512299 82.5872345 57.85624695 C84.41578223 51.18797491 86.25396357 44.52242652 88.10298634 37.85980511 C89.05323786 34.43442554 89.99974217 31.00810178 90.93774414 27.5793457 C92.01642031 23.63701432 93.11127005 19.69933588 94.20703125 15.76171875 C94.54152786 14.53039719 94.87602448 13.29907562 95.22065735 12.03044128 C95.54076279 10.88948502 95.86086823 9.74852875 96.19067383 8.57299805 C96.6070385 7.06409248 96.6070385 7.06409248 97.03181458 5.52470398 C98.02393095 2.93759607 98.79917542 1.65526515 101 0 C103.69921875 -0.29296875 103.69921875 -0.29296875 106.6875 -0.1875 C107.68136719 -0.16042969 108.67523438 -0.13335938 109.69921875 -0.10546875 C110.45847656 -0.07066406 111.21773438 -0.03585937 112 0 C110.52338397 8.88161335 107.88970818 17.38061536 105.24609375 25.96484375 C104.78011429 27.49023684 104.31455039 29.01575693 103.84938049 30.54139709 C102.63257135 34.52809924 101.409971 38.51300204 100.18615723 42.49755859 C98.938744 46.56299077 97.69727028 50.63023581 96.45507812 54.69726562 C94.64277612 60.62710526 92.82883085 66.55643699 91.00952148 72.48413086 C90.64471176 73.67308456 90.27990204 74.86203827 89.90403748 76.08702087 C89.29028973 78.06463178 88.65480006 80.03559982 88 82 C84.04 82 80.08 82 76 82 C75.42967041 80.18765869 74.85934082 78.37531738 74.27172852 76.50805664 C72.39035608 70.53213782 70.50612978 64.5571249 68.61993504 58.58272648 C67.47601529 54.95906885 66.33325818 51.33505298 65.19311523 47.71020508 C64.09356017 44.21454506 62.99100731 40.71984391 61.88633537 37.22579765 C61.4646115 35.8900392 61.04398417 34.55393405 60.62445259 33.21748543 C60.03839454 31.35119899 59.44813604 29.48623313 58.85766602 27.62133789 C58.52235367 26.55766495 58.18704132 25.493992 57.84156799 24.39808655 C57.22146559 22.07711003 57.22146559 22.07711003 56 21 C55.77893585 21.7052179 55.5578717 22.41043579 55.33010864 23.13702393 C53.24440565 29.78853717 51.15546483 36.43902571 49.06289864 43.08838272 C47.98725042 46.50676961 46.91285018 49.92553824 45.84130859 53.34521484 C44.80683032 56.64644753 43.76906539 59.94663046 42.72903061 63.24611664 C42.14073533 65.11544988 41.55583306 66.98584984 40.97097778 68.85626221 C40.43064407 70.56758331 40.43064407 70.56758331 39.87939453 72.31347656 C39.56406769 73.31719299 39.24874084 74.32090942 38.92385864 75.3550415 C38 78 38 78 36 82 C32.37 82 28.74 82 25 82 C19.30088452 65.39333661 14.19094221 48.62465721 9.17523193 31.8026123 C8.34520715 29.02208301 7.51164419 26.24261953 6.6780405 23.46316147 C5.8731047 20.77848311 5.06964032 18.09336639 4.26670647 15.40808868 C3.69990071 13.51277913 3.13237313 11.61768548 2.56483459 9.72259521 C2.2270549 8.58920715 1.88927521 7.45581909 1.54125977 6.28808594 C1.24260513 5.2877533 0.9439505 4.28742065 0.63624573 3.2567749 C0 1 0 1 0 0 Z " fill="#E96AB8" transform="translate(223,713)"/>
<path d="M0 0 C13.86 0 27.72 0 42 0 C42 30.36 42 60.72 42 92 C46.95 92 51.9 92 57 92 C57 94.97 57 97.94 57 101 C37.86 101 18.72 101 -1 101 C-1 98.03 -1 95.06 -1 92 C4.28 92 9.56 92 15 92 C15 64.61 15 37.22 15 9 C10.05 9 5.1 9 0 9 C0 6.03 0 3.06 0 0 Z " fill="#C068D0" transform="translate(857,370)"/>
<path d="M0 0 C4.22478987 1.32532471 8.22253972 1.47601602 12.625 1.64453125 C13.45644531 1.68320312 14.28789063 1.721875 15.14453125 1.76171875 C17.17935156 1.85527371 19.21464416 1.93845838 21.25 2.01953125 C21.375 4.89453125 21.375 4.89453125 21.25 8.01953125 C18.6845406 10.58499065 16.77313332 10.55999212 13.25 11.01953125 C13.35699219 11.72078125 13.46398437 12.42203125 13.57421875 13.14453125 C14.36484099 19.40149868 14.79552586 24.58076342 11.25 30.01953125 C6.97502226 34.88051718 2.76140448 38.04282058 -3.75 39.01953125 C-6.89986936 39.05601622 -10.02813399 39.02091106 -13.17578125 38.89453125 C-15.91711769 38.73866293 -15.91711769 38.73866293 -17.75 41.01953125 C-17.4314823 43.12773922 -17.4314823 43.12773922 -16.75 45.01953125 C-11.38229553 45.9751453 -6.0286824 46.91356445 -0.6015625 47.45703125 C0.0996875 47.53066895 0.8009375 47.60430664 1.5234375 47.68017578 C3.54306837 47.88617438 5.56449532 48.07432667 7.5859375 48.26171875 C11.67949899 49.10836153 14.01183921 50.40795696 17.25 53.01953125 C19.92967465 57.51446937 20.75592814 60.98400776 19.80859375 66.04296875 C17.90015167 72.79591765 14.53077826 76.21032758 8.66796875 79.796875 C-0.23379137 84.29808811 -11.23512791 84.14062805 -20.75 81.7109375 C-25.99047918 79.89928747 -29.82706126 76.67458183 -32.75 72.01953125 C-33.91897659 67.81121553 -33.90415568 65.5248193 -32.625 61.33203125 C-30.6982875 57.92817249 -28.9641261 56.19123807 -25.75 54.01953125 C-26.245 53.52453125 -26.74 53.02953125 -27.25 52.51953125 C-29.32738277 49.05722664 -29.44272136 45.90770922 -28.75 42.01953125 C-26.875 38.51953125 -26.875 38.51953125 -24.75 36.01953125 C-24.09 36.01953125 -23.43 36.01953125 -22.75 36.01953125 C-22.75 35.35953125 -22.75 34.69953125 -22.75 34.01953125 C-23.36359375 33.76171875 -23.9771875 33.50390625 -24.609375 33.23828125 C-28.27438822 31.15163139 -29.47369284 27.92659398 -30.75 24.01953125 C-31.8248095 17.22673519 -30.73182948 11.64631324 -26.75 6.01953125 C-19.97542961 -0.94322165 -9.15463402 -3.26393912 0 0 Z M-18.5 12.14453125 C-20.1131598 15.8547988 -20.41383966 19.07508861 -19.75 23.01953125 C-18.28909269 26.44948754 -17.18174436 28.36999472 -13.7265625 29.9375 C-9.87330596 31.02246131 -6.68847165 31.37165389 -2.875 30.01953125 C0.88785733 27.61130256 1.9820568 26.29883954 3.25 22.01953125 C3.61690241 16.94553941 3.00136115 13.93994866 -0.25 9.95703125 C-5.94983857 5.96439071 -14.07216931 6.7678797 -18.5 12.14453125 Z M-19.64453125 58.453125 C-20.68673828 59.72349609 -20.68673828 59.72349609 -21.75 61.01953125 C-22.08 61.34953125 -22.41 61.67953125 -22.75 62.01953125 C-23.33528777 64.84934716 -23.33528777 64.84934716 -22.75 68.01953125 C-18.00830182 72.76122943 -14.57453724 74.16941139 -8 74.26953125 C-1.86528261 74.21760498 2.12100631 73.31412662 7.125 69.64453125 C8.68523965 67.39085175 9.11643115 65.75769275 9.25 63.01953125 C8.43018684 60.67324741 8.43018684 60.67324741 6.25 59.01953125 C1.16971884 57.16327467 -4.07163085 56.62604542 -9.4375 56.08203125 C-10.69949219 55.94925781 -11.96148438 55.81648437 -13.26171875 55.6796875 C-16.93019403 55.70473802 -16.93019403 55.70473802 -19.64453125 58.453125 Z " fill="#B968D4" transform="translate(997.75,733.98046875)"/>
<path d="M0 0 C4.29 0 8.58 0 13 0 C13.4752713 1.28213882 13.4752713 1.28213882 13.96014404 2.59017944 C16.95971527 10.68141974 19.96052291 18.77220018 22.96268845 26.86247826 C24.50574605 31.0208628 26.04834036 35.17941794 27.58984375 39.33837891 C29.08002932 43.35883092 30.57147379 47.3788139 32.06375885 51.39848709 C32.63028222 52.9251536 33.19636677 54.45198303 33.76198578 55.97898483 C34.55985668 58.13275713 35.35901227 60.28604475 36.15917969 62.43896484 C36.53048067 63.43833352 36.53048067 63.43833352 36.90928268 64.45789146 C38.63218146 69.07224865 40.44126482 73.64463148 42.33868408 78.18984985 C43 80 43 80 43 82 C41.06440687 82.13504138 39.126128 82.23201129 37.1875 82.3125 C36.10855469 82.37050781 35.02960938 82.42851563 33.91796875 82.48828125 C31 82 31 82 29.28125 79.92578125 C27.8287864 76.60902748 26.51954031 73.28951042 25.3125 69.875 C24.87550781 68.65554688 24.43851563 67.43609375 23.98828125 66.1796875 C23 63 23 63 23 60 C12.11 60 1.22 60 -10 60 C-10.99 63.3 -11.98 66.6 -13 70 C-13.68638719 72.02839249 -14.38994657 74.05123176 -15.125 76.0625 C-15.45757813 76.98160156 -15.79015625 77.90070313 -16.1328125 78.84765625 C-17 81 -17 81 -18 82 C-20.01964199 82.07244053 -22.04167124 82.08377188 -24.0625 82.0625 C-25.16722656 82.05347656 -26.27195312 82.04445313 -27.41015625 82.03515625 C-28.26480469 82.02355469 -29.11945312 82.01195312 -30 82 C-29.30205369 77.83327095 -28.0190442 74.0737659 -26.54736328 70.11767578 C-26.2984433 69.44543976 -26.04952332 68.77320374 -25.7930603 68.08059692 C-24.97247362 65.86745551 -24.1465002 63.65636847 -23.3203125 61.4453125 C-22.7457235 59.89991439 -22.17141752 58.35441101 -21.59738159 56.80880737 C-20.39422924 53.57170063 -19.18856974 50.33554303 -17.98095703 47.10009766 C-16.43836256 42.96695163 -14.90058529 38.83203489 -13.36451912 34.69645882 C-12.17860105 31.50449633 -10.99082465 28.31322802 -9.80242538 25.12218857 C-9.23511494 23.59861057 -8.6682068 22.07488271 -8.1017189 20.55099869 C-7.30672186 18.41370634 -6.50940179 16.2772949 -5.71142578 14.14111328 C-5.25921661 12.92819611 -4.80700745 11.71527893 -4.34109497 10.46560669 C-2.9748824 6.93509204 -1.51194722 3.47003314 0 0 Z M6 14 C4.14657632 19.10791129 2.29521717 24.21656415 0.44580078 29.32592773 C-0.18415989 31.06539323 -0.81469277 32.80465161 -1.44580078 34.54370117 C-2.35077616 37.03771104 -3.25371759 39.53244895 -4.15625 42.02734375 C-4.5827887 43.2007859 -4.5827887 43.2007859 -5.01794434 44.39793396 C-6.39458759 47.62187207 -6.39458759 47.62187207 -7 51 C1.58 51 10.16 51 19 51 C16.57207494 42.02633205 16.57207494 42.02633205 13.73828125 33.23828125 C13.34189453 32.10068359 12.94550781 30.96308594 12.53710938 29.79101562 C12.13298828 28.64310547 11.72886719 27.49519531 11.3125 26.3125 C10.89677734 25.12205078 10.48105469 23.93160156 10.05273438 22.70507812 C9.03847718 19.80220407 8.02084668 16.90056187 7 14 C6.67 14 6.34 14 6 14 Z " fill="#D569C4" transform="translate(572,713)"/>
<path d="M0 0 C3.96 0 7.92 0 12 0 C16.34164115 10.18552315 20.2560374 20.50286144 24.125 30.875 C24.78515776 32.64000384 25.44539628 34.40497746 26.10571289 36.16992188 C31.806078 51.4213543 37.42856658 66.70103065 43 82 C41.06372231 82.10807131 39.12572244 82.1856225 37.1875 82.25 C36.10855469 82.29640625 35.02960938 82.3428125 33.91796875 82.390625 C31 82 31 82 29.21362305 80.24121094 C28.07443785 78.13746519 27.16580538 76.15302913 26.39453125 73.890625 C26.15839111 73.21032227 25.92225098 72.53001953 25.67895508 71.82910156 C25.3930249 70.97799805 25.10709473 70.12689453 24.8125 69.25 C23.884375 66.5275 22.95625 63.805 22 61 C11.44 61 0.88 61 -10 61 C-12.21979471 67.16063046 -12.21979471 67.16063046 -14.42724609 73.32568359 C-14.70648926 74.09219238 -14.98573242 74.85870117 -15.2734375 75.6484375 C-15.55622559 76.43395996 -15.83901367 77.21948242 -16.13037109 78.02880859 C-17 80 -17 80 -19 82 C-21.6015625 82.1953125 -21.6015625 82.1953125 -24.625 82.125 C-25.62789062 82.10695313 -26.63078125 82.08890625 -27.6640625 82.0703125 C-28.43492188 82.04710937 -29.20578125 82.02390625 -30 82 C-28.43034091 73.3458098 -25.30464697 65.35278874 -22.1875 57.16796875 C-21.6117516 55.64359544 -21.03648299 54.11904083 -20.46166992 52.59431458 C-19.26169296 49.41505176 -18.05775522 46.23732972 -16.85058594 43.06079102 C-15.30487784 38.99322411 -13.76643005 34.9229609 -12.23057556 30.85166454 C-11.04514885 27.71026514 -9.85731626 24.56978033 -8.66860962 21.42962074 C-8.10045834 19.92869091 -7.53272575 18.42760252 -6.96542358 16.92635155 C-6.17318973 14.83180117 -5.37806441 12.73837259 -4.58203125 10.64526367 C-4.13061768 9.45551437 -3.6792041 8.26576508 -3.21411133 7.03996277 C-2 4 -2 4 0 0 Z M5 15 C1.04 26.88 -2.92 38.76 -7 51 C1.58 51 10.16 51 19 51 C15.04 39.12 11.08 27.24 7 15 C6.34 15 5.68 15 5 15 Z " fill="#AA67DE" transform="translate(1203,713)"/>
<path d="M0 0 C3.96 0 7.92 0 12 0 C12.33 10.56 12.66 21.12 13 32 C15.64 30.35 18.28 28.7 21 27 C28.47250727 25.13187318 35.16130829 25.11133217 42 29 C48.0797945 34.11255446 50.15055783 39.24357057 51 47 C51.12334672 50.21864115 51.11696908 53.43173605 51.09765625 56.65234375 C51.0962413 57.55247696 51.09482635 58.45261017 51.09336853 59.38002014 C51.0878066 62.23254837 51.07526127 65.08499581 51.0625 67.9375 C51.05748008 69.88085824 51.05291803 71.82421771 51.04882812 73.76757812 C51.03784966 78.5117495 51.02061153 83.25586109 51 88 C47.04 88 43.08 88 39 88 C38.9906543 86.76958984 38.98130859 85.53917969 38.97167969 84.27148438 C38.93161775 79.67900222 38.86581434 75.08717858 38.79248047 70.49511719 C38.76436453 68.51278178 38.74310362 66.53033621 38.72900391 64.54785156 C38.70744408 61.68758125 38.66072785 58.8286223 38.609375 55.96875 C38.60814636 55.09134155 38.60691772 54.21393311 38.60565186 53.30993652 C38.46906617 47.48962841 37.38609292 42.83333485 34 38 C30.25842405 36.12921203 26.07311256 36.44861795 22 37 C18.66525315 38.50199167 15.59800667 40.40199333 13 43 C12.87790076 44.41117702 12.82229128 45.82820459 12.79467773 47.24438477 C12.77473251 48.14524307 12.75478729 49.04610138 12.73423767 49.97425842 C12.70916893 51.4429966 12.70916893 51.4429966 12.68359375 52.94140625 C12.66281265 53.93881332 12.64203156 54.9362204 12.62062073 55.96385193 C12.55501363 59.16332843 12.49618866 62.36288982 12.4375 65.5625 C12.39432538 67.72592039 12.35071145 69.88933206 12.30664062 72.05273438 C12.19932091 77.36840164 12.09808531 82.68415464 12 88 C8.04 88 4.08 88 0 88 C0 58.96 0 29.92 0 0 Z " fill="#C469CE" transform="translate(808,707)"/>
<path d="M0 0 C3.96 0 7.92 0 12 0 C12.33 10.89 12.66 21.78 13 33 C14.65 31.68 16.3 30.36 18 29 C23.65214555 25.86381986 29.63706584 25.09968022 36 26 C41.89996248 27.8225015 45.60742053 30.91113079 49 36 C51.17115926 41.89240326 51.26320817 47.29071245 51.1953125 53.52734375 C51.1924826 54.51626114 51.18965271 55.50517853 51.18673706 56.52406311 C51.17560142 59.66200195 51.15050903 62.79964839 51.125 65.9375 C51.11496165 68.07356357 51.1058373 70.20963164 51.09765625 72.34570312 C51.07568375 77.5639136 51.04119964 82.78190734 51 88 C47.04 88 43.08 88 39 88 C38.98541748 86.69329346 38.97083496 85.38658691 38.95581055 84.0402832 C38.89777185 79.18518925 38.82053884 74.33055637 38.73754883 69.47583008 C38.70432578 67.37597139 38.6762857 65.27602397 38.65356445 63.17602539 C38.61997064 60.15472656 38.56765166 57.13423899 38.51171875 54.11328125 C38.50532883 53.17664139 38.4989389 52.24000153 38.49235535 51.27497864 C38.38294873 46.40806784 38.24112051 42.90167626 35 39 C30.64301099 36.09534066 27.09435187 36.27214525 22 37 C18.45582896 38.43590748 15.65607298 40.2392984 13 43 C11.7422388 46.48924289 11.80747769 49.74991066 11.90234375 53.4296875 C11.89288223 54.42001984 11.88342072 55.41035217 11.87367249 56.43069458 C11.85314483 59.58033068 11.89444067 62.725655 11.9375 65.875 C11.93442438 68.01563477 11.92730782 70.1562678 11.91601562 72.296875 C11.89719998 77.5323856 11.9338091 82.76490189 12 88 C8.04 88 4.08 88 0 88 C0 58.96 0 29.92 0 0 Z " fill="#9566EA" transform="translate(1489,707)"/>
<path d="M0 0 C6.18586952 5.7723295 8.26306589 13.40664774 8.8046875 21.58984375 C8.75 23.9375 8.75 23.9375 7.75 26.9375 C-6.11 26.9375 -19.97 26.9375 -34.25 26.9375 C-32.26090676 37.69637074 -32.26090676 37.69637074 -26.25 44.9375 C-20.3249949 48.27031537 -15.27914466 48.13669317 -8.76171875 46.69140625 C-6.03858231 45.95216658 -6.03858231 45.95216658 -2.875 44.25 C-0.25 42.9375 -0.25 42.9375 2.4375 42.9375 C5.51218297 44.26709264 6.31122409 45.98422313 7.75 48.9375 C-0.79872884 56.31615143 -8.88632711 58.5450755 -20.140625 58.21484375 C-28.62015205 57.45850403 -34.59399431 54.35020487 -40.25 47.9375 C-46.11060919 39.24223414 -47.20381013 29.17586698 -46.25 18.9375 C-44.4266592 10.55231595 -40.50460406 3.3161613 -33.16015625 -1.40625 C-22.3036965 -7.06697389 -10.3378391 -6.56055174 0 0 Z M-29.25 7.9375 C-32.88868633 13.55396276 -32.88868633 13.55396276 -34.25 19.9375 C-23.69 19.9375 -13.13 19.9375 -2.25 19.9375 C-3.26268015 12.57241552 -3.26268015 12.57241552 -7.25 6.9375 C-13.88710948 2.3069585 -23.2189811 2.01123826 -29.25 7.9375 Z " fill="#8A66F1" transform="translate(1704.25,738.0625)"/>
<path d="M0 0 C5.20704871 4.06592952 7.85237578 8.94014316 9.7734375 15.18359375 C10.14830615 19.02599741 10.29420609 22.8916232 10.0234375 26.74609375 C9.0234375 27.74609375 9.0234375 27.74609375 5.05444336 27.85961914 C3.28238143 27.85945995 1.5103149 27.8537616 -0.26171875 27.84375 C-1.19253769 27.84233505 -2.12335663 27.8409201 -3.0823822 27.83946228 C-6.06797441 27.83384547 -9.05349279 27.82129015 -12.0390625 27.80859375 C-14.05794163 27.80358091 -16.07682193 27.79901763 -18.09570312 27.79492188 C-23.05601822 27.78387058 -28.01627782 27.7665947 -32.9765625 27.74609375 C-32.5210352 29.50791812 -32.05879898 31.26800874 -31.59375 33.02734375 C-31.33706543 34.00767578 -31.08038086 34.98800781 -30.81591797 35.99804688 C-29.42968946 40.53655417 -27.40604934 43.59456268 -23.7265625 46.55859375 C-17.22886269 49.36441867 -11.49813096 49.11880577 -4.9765625 46.74609375 C-3.9246875 46.18921875 -2.8728125 45.63234375 -1.7890625 45.05859375 C1.0234375 43.74609375 1.0234375 43.74609375 3.7109375 43.87109375 C6.16177925 44.79843928 7.36814005 45.74231263 9.0234375 47.74609375 C6.58926996 53.55349854 1.4801867 55.71425909 -4.1015625 58.05859375 C-15.79654548 60.13351008 -25.35774046 59.11701396 -35.2890625 52.55859375 C-42.40146314 45.11538378 -44.4801903 36.90110907 -45.2890625 26.87109375 C-44.97689169 17.79977731 -42.591676 9.1675215 -35.9765625 2.74609375 C-25.59877023 -5.50129807 -11.42579044 -7.24837694 0 0 Z M-28.7890625 10.49609375 C-31.54227644 14.07739986 -31.54227644 14.07739986 -31.9765625 20.74609375 C-21.7465625 20.74609375 -11.5165625 20.74609375 -0.9765625 20.74609375 C-1.8578933 12.15463221 -1.8578933 12.15463221 -6.9765625 6.74609375 C-14.74875344 2.12479103 -22.72771339 4.56944128 -28.7890625 10.49609375 Z " fill="#9166EC" transform="translate(1595.9765625,737.25390625)"/>
<path d="M0 0 C5.03012217 4.28176124 8.74748091 9.45012952 10 16 C10.26190532 19.68644089 10.33659136 23.31691377 10 27 C9 28 9 28 5.03100586 28.11352539 C3.25894393 28.1133662 1.4868774 28.10766785 -0.28515625 28.09765625 C-1.21597519 28.0962413 -2.14679413 28.09482635 -3.1058197 28.09336853 C-6.09141191 28.08775172 -9.07693029 28.0751964 -12.0625 28.0625 C-14.08137913 28.05748716 -16.10025943 28.05292388 -18.11914062 28.04882812 C-23.07945572 28.03777683 -28.03971532 28.02050095 -33 28 C-32.38755891 30.10371637 -31.76602912 32.20478837 -31.140625 34.3046875 C-30.79547852 35.47499512 -30.45033203 36.64530273 -30.09472656 37.85107422 C-28.25872983 43.13222628 -25.3148253 45.56447423 -20.4375 47.9375 C-14.96807623 49.7779715 -9.41745745 48.59908399 -4 47 C-2.31680293 46.02808158 -0.64711177 45.03189175 1 44 C3.625 43.5625 3.625 43.5625 6 44 C7.875 45.75 7.875 45.75 9 48 C8.828125 49.9765625 8.828125 49.9765625 8 52 C-0.81275231 58.8459578 -11.19452195 59.95059328 -22 59 C-29.22271484 57.36559163 -34.52746561 53.88804395 -39 48 C-45.01659105 38.18635302 -45.84385846 25.90088571 -43.24609375 14.76953125 C-40.13901221 6.71548852 -35.60730966 1.94773266 -28 -2 C-18.74321477 -5.66778283 -8.55497985 -5.18836938 0 0 Z M-28.25 10.375 C-30.63651385 13.95477078 -32 16.67013751 -32 21 C-21.77 21 -11.54 21 -1 21 C-1 14.75398581 -1.22303279 13.57211821 -5 9 C-9.18838471 5.29863677 -12.39485244 4.40593794 -17.82421875 4.6796875 C-22.35687354 5.34697241 -25.13898512 7.09115096 -28.25 10.375 Z " fill="#DC6AC0" transform="translate(499,737)"/>
<path d="M0 0 C5.11135994 4.77060261 7.53585522 10.53167211 8.25961304 17.4992981 C8.34411637 20.17279489 8.33817669 22.82949262 8.29296875 25.50390625 C8.28872391 26.4677977 8.28447906 27.43168915 8.28010559 28.42478943 C8.26345681 31.47099015 8.22583111 34.51650288 8.1875 37.5625 C8.1724353 39.64126641 8.15875004 41.72004331 8.14648438 43.79882812 C8.11359864 48.86614616 8.06191324 53.93295687 8 59 C4.04 59 0.08 59 -4 59 C-4.01458252 57.72882324 -4.02916504 56.45764648 -4.04418945 55.14794922 C-4.10229807 50.41768708 -4.17953048 45.6878947 -4.26245117 40.95800781 C-4.29564141 38.9134892 -4.32369163 36.86888026 -4.34643555 34.82421875 C-4.38008993 31.87981794 -4.43241166 28.93624046 -4.48828125 25.9921875 C-4.49467117 25.0825827 -4.5010611 24.17297791 -4.50764465 23.23580933 C-4.62549438 18.11295871 -5.08644209 14.40062824 -8 10 C-12.26881779 7.15412147 -15.98802375 7.24598587 -21 8 C-24.33274747 9.50896384 -27.40108251 11.40108251 -30 14 C-30.12209924 15.41117702 -30.17770872 16.82820459 -30.20532227 18.24438477 C-30.22526749 19.14524307 -30.24521271 20.04610138 -30.26576233 20.97425842 C-30.28247482 21.95341721 -30.29918732 22.93257599 -30.31640625 23.94140625 C-30.33718735 24.93881332 -30.35796844 25.9362204 -30.37937927 26.96385193 C-30.44498637 30.16332843 -30.50381134 33.36288982 -30.5625 36.5625 C-30.60567462 38.72592039 -30.64928855 40.88933206 -30.69335938 43.05273438 C-30.80067909 48.36840164 -30.90191469 53.68415464 -31 59 C-34.96 59 -38.92 59 -43 59 C-43 38.87 -43 18.74 -43 -2 C-40.03 -2 -37.06 -2 -34 -2 C-33.01 -0.02 -32.02 1.96 -31 4 C-30.39671875 3.57847656 -29.7934375 3.15695312 -29.171875 2.72265625 C-28.37265625 2.17480469 -27.5734375 1.62695312 -26.75 1.0625 C-25.96109375 0.51722656 -25.1721875 -0.02804687 -24.359375 -0.58984375 C-17.22365276 -4.85473734 -7.06332785 -4.1623182 0 0 Z " fill="#B168DA" transform="translate(1129,736)"/>
<path d="M0 0 C5.11135994 4.77060261 7.53585522 10.53167211 8.25961304 17.4992981 C8.34411637 20.17279489 8.33817669 22.82949262 8.29296875 25.50390625 C8.28872391 26.4677977 8.28447906 27.43168915 8.28010559 28.42478943 C8.26345681 31.47099015 8.22583111 34.51650288 8.1875 37.5625 C8.1724353 39.64126641 8.15875004 41.72004331 8.14648438 43.79882812 C8.11359864 48.86614616 8.06191324 53.93295687 8 59 C4.04 59 0.08 59 -4 59 C-4.01458252 57.72882324 -4.02916504 56.45764648 -4.04418945 55.14794922 C-4.10229807 50.41768708 -4.17953048 45.6878947 -4.26245117 40.95800781 C-4.29564141 38.9134892 -4.32369163 36.86888026 -4.34643555 34.82421875 C-4.38008993 31.87981794 -4.43241166 28.93624046 -4.48828125 25.9921875 C-4.49467117 25.0825827 -4.5010611 24.17297791 -4.50764465 23.23580933 C-4.62549438 18.11295871 -5.08644209 14.40062824 -8 10 C-12.26881779 7.15412147 -15.98802375 7.24598587 -21 8 C-24.33274747 9.50896384 -27.40108251 11.40108251 -30 14 C-30.12209924 15.41117702 -30.17770872 16.82820459 -30.20532227 18.24438477 C-30.22526749 19.14524307 -30.24521271 20.04610138 -30.26576233 20.97425842 C-30.28247482 21.95341721 -30.29918732 22.93257599 -30.31640625 23.94140625 C-30.33718735 24.93881332 -30.35796844 25.9362204 -30.37937927 26.96385193 C-30.44498637 30.16332843 -30.50381134 33.36288982 -30.5625 36.5625 C-30.60567462 38.72592039 -30.64928855 40.88933206 -30.69335938 43.05273438 C-30.80067909 48.36840164 -30.90191469 53.68415464 -31 59 C-34.96 59 -38.92 59 -43 59 C-43 38.87 -43 18.74 -43 -2 C-40.03 -2 -37.06 -2 -34 -2 C-33.01 -0.02 -32.02 1.96 -31 4 C-30.39671875 3.57847656 -29.7934375 3.15695312 -29.171875 2.72265625 C-28.37265625 2.17480469 -27.5734375 1.62695312 -26.75 1.0625 C-25.96109375 0.51722656 -25.1721875 -0.02804687 -24.359375 -0.58984375 C-17.22365276 -4.85473734 -7.06332785 -4.1623182 0 0 Z " fill="#D169C6" transform="translate(666,736)"/>
<path d="M0 0 C5.22839636 4.39660603 8.0164575 9.26444511 9 16 C9.1324659 19.29882668 9.1162812 22.59351868 9.09765625 25.89453125 C9.0962413 26.84188644 9.09482635 27.78924164 9.09336853 28.76530457 C9.08778611 31.78106895 9.07523682 34.79675818 9.0625 37.8125 C9.05748273 39.86132705 9.05292022 41.91015527 9.04882812 43.95898438 C9.03782243 48.97268506 9.02056988 53.9863298 9 59 C5.04 59 1.08 59 -3 59 C-3.01458252 57.72882324 -3.02916504 56.45764648 -3.04418945 55.14794922 C-3.10229807 50.41768708 -3.17953048 45.6878947 -3.26245117 40.95800781 C-3.29564141 38.9134892 -3.32369163 36.86888026 -3.34643555 34.82421875 C-3.38008993 31.87981794 -3.43241166 28.93624046 -3.48828125 25.9921875 C-3.49467117 25.0825827 -3.5010611 24.17297791 -3.50764465 23.23580933 C-3.62549438 18.11295871 -4.08644209 14.40062824 -7 10 C-11.26881779 7.15412147 -14.98802375 7.24598587 -20 8 C-23.33274747 9.50896384 -26.40108251 11.40108251 -29 14 C-29.12209924 15.41117702 -29.17770872 16.82820459 -29.20532227 18.24438477 C-29.22526749 19.14524307 -29.24521271 20.04610138 -29.26576233 20.97425842 C-29.28247482 21.95341721 -29.29918732 22.93257599 -29.31640625 23.94140625 C-29.33718735 24.93881332 -29.35796844 25.9362204 -29.37937927 26.96385193 C-29.44498637 30.16332843 -29.50381134 33.36288982 -29.5625 36.5625 C-29.60567462 38.72592039 -29.64928855 40.88933206 -29.69335938 43.05273438 C-29.80067909 48.36840164 -29.90191469 53.68415464 -30 59 C-33.96 59 -37.92 59 -42 59 C-42 38.87 -42 18.74 -42 -2 C-39.03 -2 -36.06 -2 -33 -2 C-32.01 -0.02 -31.02 1.96 -30 4 C-29.39671875 3.57847656 -28.7934375 3.15695312 -28.171875 2.72265625 C-27.37265625 2.17480469 -26.5734375 1.62695312 -25.75 1.0625 C-24.96109375 0.51722656 -24.1721875 -0.02804687 -23.359375 -0.58984375 C-16.23930074 -4.84538482 -7.00864515 -3.98530803 0 0 Z " fill="#BE68D1" transform="translate(945,736)"/>
<path d="M0 0 C0.98049914 -0.00467997 0.98049914 -0.00467997 1.98080635 -0.00945449 C4.18114239 -0.01746092 6.38120466 -0.01110073 8.58154297 -0.00482178 C10.15492922 -0.00753047 11.72831421 -0.01109072 13.30169678 -0.01544189 C17.5825993 -0.02458266 21.86340574 -0.02101473 26.14431 -0.01468372 C30.6170427 -0.00963243 35.08976699 -0.01431274 39.5625 -0.01745605 C47.07472211 -0.02109825 54.58690494 -0.01628997 62.09912109 -0.0067749 C70.79353292 0.00411014 79.48785096 0.00058474 88.18226051 -0.01042771 C95.63705564 -0.01949339 103.09182247 -0.0207894 110.54662132 -0.01555037 C115.0034476 -0.0124267 119.46022975 -0.01203218 123.91705322 -0.01862335 C128.10637061 -0.02438575 132.29556667 -0.02042033 136.48487091 -0.00883484 C138.02563526 -0.0061823 139.56640975 -0.0069634 141.1071701 -0.01136017 C143.20407324 -0.01679385 145.30058313 -0.0100085 147.39746094 0 C148.57291473 0.00075405 149.74836853 0.0015081 150.95944214 0.002285 C153.69873047 0.25396729 153.69873047 0.25396729 155.69873047 2.25396729 C155.94873047 5.25396729 155.94873047 5.25396729 155.69873047 8.25396729 C152.92288233 11.02981542 151.28738122 10.50543919 147.39746094 10.50793457 C146.74379484 10.51105455 146.09012875 10.51417453 145.41665459 10.51738906 C143.21631855 10.52539549 141.01625628 10.5190353 138.81591797 10.51275635 C137.24253172 10.51546504 135.66914673 10.51902529 134.09576416 10.52337646 C129.81486164 10.53251723 125.5340552 10.5289493 121.25315094 10.52261829 C116.78041824 10.517567 112.30769395 10.52224731 107.83496094 10.52539062 C100.32273883 10.52903282 92.810556 10.52422454 85.29833984 10.51470947 C76.60392802 10.50382443 67.90960998 10.50734983 59.21520042 10.51836228 C51.7604053 10.52742796 44.30563847 10.52872397 36.85083961 10.52348495 C32.39401333 10.52036127 27.93723119 10.51996675 23.48040771 10.52655792 C19.29109032 10.53232032 15.10189426 10.5283549 10.91259003 10.51676941 C9.37182568 10.51411687 7.83105119 10.51489798 6.29029083 10.51929474 C4.1933877 10.52472842 2.09687781 10.51794307 0 10.50793457 C-1.1754538 10.50718052 -2.35090759 10.50642647 -3.5619812 10.50564957 C-6.30126953 10.25396729 -6.30126953 10.25396729 -8.30126953 8.25396729 C-8.55126953 5.25396729 -8.55126953 5.25396729 -8.30126953 2.25396729 C-5.5254214 -0.52188085 -3.88992029 0.00249538 0 0 Z " fill="#EA6AB7" transform="translate(218.30126953125,475.74603271484375)"/>
<path d="M0 0 C0.65281167 -0.00226556 1.30562334 -0.00453111 1.97821718 -0.00686532 C4.18158644 -0.0132322 6.38489462 -0.01237425 8.58827209 -0.0115509 C10.16151001 -0.01454072 11.73474719 -0.01794283 13.3079834 -0.02172852 C17.59304968 -0.03059073 21.87809602 -0.03290756 26.16317058 -0.0335443 C29.73445109 -0.03449155 33.30572692 -0.0381677 36.87700564 -0.0417164 C45.29931821 -0.04986938 53.72162009 -0.05229986 62.14393616 -0.05158997 C70.84570546 -0.05098893 79.54741281 -0.06154398 88.24916643 -0.07733363 C95.70818244 -0.09038834 103.16717815 -0.09577474 110.6262055 -0.09513456 C115.08640661 -0.09487896 119.5465527 -0.09776391 124.00674248 -0.10831261 C128.20014043 -0.1179589 132.3934304 -0.11809678 136.58683205 -0.11079597 C138.12921175 -0.10974579 139.67159805 -0.11213851 141.21396637 -0.11815643 C143.31310206 -0.12581859 145.4118594 -0.12127048 147.51098633 -0.11352539 C149.27611525 -0.11434254 149.27611525 -0.11434254 151.07690334 -0.1151762 C153.81898499 0.13371277 153.81898499 0.13371277 155.81898499 2.13371277 C156.06898499 5.13371277 156.06898499 5.13371277 155.81898499 8.13371277 C153.04313685 10.9095609 151.40763574 10.38518468 147.51771545 10.38768005 C146.86404936 10.39080003 146.21038326 10.39392002 145.5369091 10.39713454 C143.33657307 10.40514097 141.1365108 10.39878079 138.93617249 10.39250183 C137.36278623 10.39521053 135.78940125 10.39877077 134.21601868 10.40312195 C129.93511616 10.41226271 125.65430972 10.40869478 121.37340546 10.40236378 C116.90067275 10.39731249 112.42794847 10.4019928 107.95521545 10.40513611 C100.44299334 10.4087783 92.93081051 10.40397003 85.41859436 10.39445496 C76.72418253 10.38356992 68.02986449 10.38709532 59.33545494 10.39810777 C51.88065982 10.40717344 44.42589298 10.40846945 36.97109413 10.40323043 C32.51426785 10.40010676 28.0574857 10.39971224 23.60066223 10.40630341 C19.41134484 10.4120658 15.22214878 10.40810038 11.03284454 10.39651489 C9.4920802 10.39386236 7.9513057 10.39464346 6.41054535 10.39904022 C4.31364222 10.40447391 2.21713233 10.39768856 0.12025452 10.38768005 C-1.05519928 10.386926 -2.23065308 10.38617195 -3.44172668 10.38539505 C-6.18101501 10.13371277 -6.18101501 10.13371277 -8.18101501 8.13371277 C-7.526961 0.67749704 -7.33315025 0.01044668 0 0 Z " fill="#EA6AB7" transform="translate(218.18101501464844,501.8662872314453)"/>
<path d="M0 0 C5.91459309 4.83921253 7.96101169 10.30173682 8.81466675 17.77172852 C9.13467599 21.61921655 9.12218785 25.45407475 9.09765625 29.3125 C9.0962413 30.16682617 9.09482635 31.02115234 9.09336853 31.90136719 C9.08781962 34.60094873 9.07527697 37.30044399 9.0625 40 C9.05747839 41.84244671 9.05291664 43.68489473 9.04882812 45.52734375 C9.03786699 50.01826186 9.02063825 54.50911636 9 59 C5.04 59 1.08 59 -3 59 C-3.01458252 57.79988281 -3.02916504 56.59976563 -3.04418945 55.36328125 C-3.10245018 50.88268215 -3.17968033 46.40257107 -3.26245117 41.92236328 C-3.29557037 39.98852498 -3.32364224 38.05459304 -3.34643555 36.12060547 C-3.38022185 33.33000021 -3.4325483 30.54024309 -3.48828125 27.75 C-3.49467117 26.89446533 -3.5010611 26.03893066 -3.50764465 25.1574707 C-3.64444664 19.48855777 -4.5731296 15.15365489 -7 10 C-11.26501629 7.1566558 -14.99237494 7.3692976 -20 8 C-23.90255017 9.46979162 -27.35441855 11.75742406 -30 15 C-30.46918962 17.07033904 -30.46918962 17.07033904 -30.43237305 19.37963867 C-30.45216721 20.26032516 -30.47196136 21.14101166 -30.49235535 22.04838562 C-30.50194023 23.46882927 -30.50194023 23.46882927 -30.51171875 24.91796875 C-30.52966995 25.89034988 -30.54762115 26.86273102 -30.56611633 27.86457825 C-30.62032467 30.97217464 -30.65414898 34.07961652 -30.6875 37.1875 C-30.72066376 39.29364134 -30.75515253 41.39976227 -30.79101562 43.50585938 C-30.87605731 48.67046161 -30.94281841 53.83501719 -31 59 C-34.63 59 -38.26 59 -42 59 C-42 38.87 -42 18.74 -42 -2 C-39.03 -2 -36.06 -2 -33 -2 C-32 -1 -32 -1 -31.9375 2.0625 C-31.958125 3.031875 -31.97875 4.00125 -32 5 C-31.25234375 4.50628906 -30.5046875 4.01257813 -29.734375 3.50390625 C-28.74953125 2.86324219 -27.7646875 2.22257813 -26.75 1.5625 C-25.77546875 0.92441406 -24.8009375 0.28632812 -23.796875 -0.37109375 C-16.40696971 -4.67499111 -7.34477414 -4.1764402 0 0 Z " fill="#A667E1" transform="translate(1296,736)"/>
<path d="M0 0 C1.93627769 -0.10807131 3.87427756 -0.1856225 5.8125 -0.25 C7.43091797 -0.31960938 7.43091797 -0.31960938 9.08203125 -0.390625 C12 0 12 0 13.48632812 1.52807617 C15.5083538 4.83017455 16.81315699 8.32071613 18.13671875 11.94140625 C18.42102249 12.70549301 18.70532623 13.46957977 18.99824524 14.25682068 C19.59554864 15.86688433 20.18957474 17.47816714 20.78051758 19.09057617 C21.68674919 21.56045371 22.60526113 24.02550532 23.52539062 26.49023438 C24.10490199 28.05701989 24.68370265 29.62406849 25.26171875 31.19140625 C25.6741407 32.29773155 25.6741407 32.29773155 26.09489441 33.42640686 C27.18540072 36.41866502 28 38.78873769 28 42 C28.66 42 29.32 42 30 42 C30.10578369 41.34676758 30.21156738 40.69353516 30.32055664 40.02050781 C31.19916882 36.11458259 32.51696321 32.4352891 33.87109375 28.671875 C34.15348404 27.88226379 34.43587433 27.09265259 34.7268219 26.27911377 C35.32259321 24.61769221 35.92028322 22.95695758 36.51977539 21.296875 C37.43838617 18.74754069 38.34537389 16.19425874 39.25195312 13.640625 C39.83262738 12.02578764 40.4139838 10.41119538 40.99609375 8.796875 C41.26699326 8.0302655 41.53789276 7.26365601 41.81700134 6.47381592 C43.77117957 1.11441022 43.77117957 1.11441022 46 0 C47.87379605 -0.07033769 49.75001102 -0.0843022 51.625 -0.0625 C53.12933594 -0.04896484 53.12933594 -0.04896484 54.6640625 -0.03515625 C55.43492187 -0.02355469 56.20578125 -0.01195312 57 0 C49.12253072 21.31753748 40.90915722 42.518437 32.36669922 63.57843018 C31.74883561 65.10551596 31.13471722 66.63412258 30.52441406 68.16424561 C29.67158216 70.29895252 28.80464217 72.4273608 27.93359375 74.5546875 C27.43915771 75.77655762 26.94472168 76.99842773 26.43530273 78.25732422 C25 81 25 81 22 82 C20.43881572 82.06740865 18.8749748 82.08514456 17.3125 82.0625 C16.50425781 82.05347656 15.69601562 82.04445313 14.86328125 82.03515625 C14.24839844 82.02355469 13.63351562 82.01195312 13 82 C13.41690643 78.57441885 14.48889217 75.79352204 15.953125 72.70703125 C16.324375 71.91103516 16.695625 71.11503906 17.078125 70.29492188 C17.85474184 68.64978853 18.65150058 67.01400286 19.46875 65.38867188 C21.49888146 60.93882388 22.40265982 58.02890776 20.83520508 53.29638672 C20.54692841 52.42422012 20.25865173 51.55205353 19.9616394 50.65345764 C18.44937729 46.48066331 16.79533009 42.38472323 15.05859375 38.30078125 C14.69024918 37.4214946 14.3219046 36.54220795 13.94239807 35.63627625 C12.77885657 32.85965609 11.60886835 30.08582639 10.4375 27.3125 C9.26295845 24.52830318 8.09000277 21.74348944 6.92189026 18.95658875 C6.19895517 17.23200198 5.47238541 15.50893269 4.74156189 13.78767395 C2.83467261 9.2411379 1.24569162 4.77162556 0 0 Z " fill="#CD69C9" transform="translate(681,734)"/>
<path d="M0 0 C1.93559313 -0.13504138 3.873872 -0.23201129 5.8125 -0.3125 C6.89144531 -0.37050781 7.97039062 -0.42851563 9.08203125 -0.48828125 C12 0 12 0 13.48852539 2.02368164 C15.32247792 5.635007 16.72854341 9.30330177 18.1015625 13.109375 C18.5244606 14.26049774 18.5244606 14.26049774 18.9559021 15.43487549 C19.85043223 17.8715139 20.73818743 20.31054328 21.625 22.75 C22.5197722 25.20342312 23.41601345 27.65628019 24.31552124 30.10797119 C24.8738358 31.63045013 25.42927603 33.15398672 25.9815979 34.6786499 C27.03984654 38.10092618 27.03984654 38.10092618 29 41 C29.41362793 39.86457764 29.82725586 38.72915527 30.25341797 37.55932617 C31.78880466 33.34789672 33.32940178 29.13838932 34.87158203 24.92944336 C35.53837123 23.10737292 36.20374547 21.28478403 36.86767578 19.46166992 C37.82212926 16.84155959 38.78165249 14.2233547 39.7421875 11.60546875 C40.03809784 10.78974899 40.33400818 9.97402924 40.6388855 9.1335907 C40.91902496 8.37302872 41.19916443 7.61246674 41.48779297 6.82885742 C41.73206024 6.16045334 41.97632751 5.49204926 42.22799683 4.8033905 C43 3 43 3 45 0 C47.6015625 -0.29296875 47.6015625 -0.29296875 50.625 -0.1875 C52.12933594 -0.14689453 52.12933594 -0.14689453 53.6640625 -0.10546875 C54.43492188 -0.07066406 55.20578125 -0.03585937 56 0 C55.42690114 4.07970741 54.52019673 7.62785657 52.97802734 11.44433594 C52.35134659 13.00822052 52.35134659 13.00822052 51.71200562 14.60369873 C51.0308519 16.27713348 51.0308519 16.27713348 50.3359375 17.984375 C49.86564117 19.15397766 49.39534485 20.32358032 48.91079712 21.52862549 C47.65847856 24.64041913 46.40109705 27.75006234 45.14099121 30.85870361 C43.393008 35.17462042 41.65479263 39.49448079 39.91534424 43.81384277 C38.95075402 46.20675838 37.98393908 48.59877846 37.01483154 50.98986816 C34.90822705 56.19773309 32.82650244 61.40819393 30.86816406 66.67382812 C30.55368317 67.51375305 30.23920227 68.35367798 29.91519165 69.21905518 C29.35275468 70.73347584 28.80053958 72.25175453 28.26132202 73.77459717 C26.83790182 77.6021504 25.66167779 80.02758962 22 82 C19.640625 82.29296875 19.640625 82.29296875 17.25 82.1875 C16.45078125 82.16042969 15.6515625 82.13335938 14.828125 82.10546875 C14.22484375 82.07066406 13.6215625 82.03585937 13 82 C13.36351829 78.20123382 14.27857099 75.18096668 15.953125 71.79296875 C16.324375 71.04080078 16.695625 70.28863281 17.078125 69.51367188 C17.85787716 67.96586384 18.654787 66.42657829 19.46875 64.89648438 C19.83484375 64.14044922 20.2009375 63.38441406 20.578125 62.60546875 C20.92262695 61.93668701 21.26712891 61.26790527 21.62207031 60.57885742 C22.24147164 56.35228366 20.53473346 52.90772846 19 49 C18.49942581 47.7143792 18.49942581 47.7143792 17.98873901 46.40278625 C16.86286624 43.56336232 15.71007484 40.73609213 14.55078125 37.91015625 C13.69464253 35.80664833 12.83852329 33.70313248 11.98242188 31.59960938 C10.64022716 28.31168936 9.29686169 25.02425086 7.95288086 21.73706055 C6.6493166 18.5459182 5.34988089 15.35311815 4.05078125 12.16015625 C3.44149529 10.6758889 3.44149529 10.6758889 2.81990051 9.16163635 C2.4491893 8.2498613 2.07847809 7.33808624 1.6965332 6.39868164 C1.36804886 5.59531876 1.03956451 4.79195587 0.7011261 3.96424866 C0 2 0 2 0 0 Z " fill="#A167E3" transform="translate(1312,734)"/>
<path d="M0 0 C19.8 0 39.6 0 60 0 C60 3.63 60 7.26 60 11 C52.08 11 44.16 11 36 11 C36 34.43 36 57.86 36 82 C32.04 82 28.08 82 24 82 C24 58.57 24 35.14 24 11 C16.08 11 8.16 11 0 11 C0 7.37 0 3.74 0 0 Z " fill="#C869CB" transform="translate(739,713)"/>
<path d="M0 0 C2.97 0 5.94 0 9 0 C9 6.6 9 13.2 9 20 C14.28 20 19.56 20 25 20 C25 22.97 25 25.94 25 29 C19.72 29 14.44 29 9 29 C9.09339475 34.51788338 9.19945631 40.03532065 9.31738281 45.55273438 C9.35571977 47.43059576 9.39056427 49.30853176 9.421875 51.18652344 C9.46742363 53.88243321 9.52543375 56.57782712 9.5859375 59.2734375 C9.59748871 60.11619232 9.60903992 60.95894714 9.62094116 61.82723999 C9.54193181 66.39020957 9.54193181 66.39020957 12 70 C15.04182893 70.25005386 15.04182893 70.25005386 18 70 C18.33 69.67 18.66 69.34 19 69 C21.375 68.625 21.375 68.625 24 69 C25.875 71.3125 25.875 71.3125 27 74 C25.88601599 77.34195203 25.57482952 77.61626428 22.625 79.1875 C16.40651245 82.09542583 10.06345265 81.89118623 3.5625 80 C-0.44253312 76.87412049 -2.58472569 72.74690756 -3.34753418 67.70117188 C-3.45951427 65.20759453 -3.45084 62.74530969 -3.390625 60.25 C-3.38496521 59.35128174 -3.37930542 58.45256348 -3.37347412 57.52661133 C-3.35125919 54.68384292 -3.30109249 51.84238105 -3.25 49 C-3.22991569 47.06121625 -3.21166832 45.12241254 -3.1953125 43.18359375 C-3.15144346 38.45523331 -3.08252133 33.7278374 -3 29 C-4.299375 29.020625 -5.59875 29.04125 -6.9375 29.0625 C-8.29165633 29.08399454 -9.64756083 29.07148199 -11 29 C-12 28 -12 28 -12.0625 24.4375 C-12.041875 23.303125 -12.02125 22.16875 -12 21 C-9.03 20.34 -6.06 19.68 -3 19 C-2.01 12.73 -1.02 6.46 0 0 Z " fill="#E16ABD" transform="translate(422,715)"/>
<path d="M0 0 C2.654953 0.52407837 2.654953 0.52407837 4.592453 2.21157837 C6.02092445 5.32060447 5.79881729 6.27791331 4.654953 9.52407837 C2.59836173 12.18863026 0.22978954 14.51597204 -2.15632629 16.88467407 C-2.86859879 17.60716843 -3.58087128 18.32966278 -4.31472778 19.0740509 C-6.67263439 21.45976279 -9.045117 23.83031806 -11.41926575 26.19985962 C-13.06300437 27.85137059 -14.70629367 29.5033289 -16.34915161 31.15571594 C-19.79500906 34.6165001 -23.24852115 38.06942514 -26.70710754 41.51748657 C-31.14176961 45.94055049 -35.5532698 50.38594108 -39.95886517 54.83793354 C-43.3464643 58.25497008 -46.74778812 61.65807984 -50.15325356 65.05730247 C-51.7858453 66.69092224 -53.41370387 68.32928627 -55.03673363 69.97240639 C-57.30604983 72.26634914 -59.59356823 74.54045017 -61.88679504 76.81045532 C-62.55560699 77.49455475 -63.22441895 78.17865417 -63.91349792 78.88348389 C-68.53915426 83.40604771 -68.53915426 83.40604771 -72.69009399 84.01399231 C-75.345047 83.52407837 -75.345047 83.52407837 -77.282547 82.39907837 C-78.345047 80.52407837 -78.345047 80.52407837 -78.3371582 77.87402344 C-76.91629125 73.07634933 -74.04218115 70.5141877 -70.5337677 67.04995728 C-69.82149521 66.32731689 -69.10922272 65.60467651 -68.37536621 64.86013794 C-66.01975559 62.47744516 -63.64622764 60.11359431 -61.27082825 57.75064087 C-59.62687161 56.10077672 -57.98358535 54.45024434 -56.34094238 52.79907227 C-52.89652714 49.34277447 -49.44297398 45.89593712 -45.98298645 42.45523071 C-41.54659794 38.04174219 -37.13554251 33.6038798 -32.73122883 29.15841103 C-29.34382446 25.74545425 -25.94248535 22.34666255 -22.53684044 18.95191574 C-20.90438992 17.32095383 -19.27653184 15.68538198 -17.65336037 14.04518509 C-15.38412166 11.75602354 -13.09662529 9.48682696 -10.80329895 7.22183228 C-10.134487 6.53930389 -9.46567505 5.85677551 -8.77659607 5.15356445 C-4.16158928 0.65200845 -4.16158928 0.65200845 0 0 Z " fill="#E66BB9" transform="translate(387.3450469970703,305.4759216308594)"/>
<path d="M0 0 C1.3734407 -0.00639748 1.3734407 -0.00639748 2.77462769 -0.01292419 C3.78712082 -0.01247101 4.79961395 -0.01201782 5.8427887 -0.0115509 C7.43289764 -0.01658882 7.43289764 -0.01658882 9.05513 -0.02172852 C12.57884373 -0.03127085 16.1025101 -0.03318325 19.62623596 -0.03425598 C22.06382263 -0.03746621 24.50140911 -0.0408301 26.93899536 -0.04434204 C32.05618232 -0.05034149 37.17335237 -0.0521811 42.2905426 -0.05158997 C48.86280154 -0.05148828 55.43495259 -0.06514339 62.00718594 -0.08236217 C67.0436249 -0.09345486 72.08003757 -0.09551002 77.1164875 -0.09498024 C79.54029271 -0.09616438 81.96409851 -0.10061024 84.38789177 -0.10831261 C87.77137282 -0.11805777 91.15461671 -0.1152562 94.5381012 -0.10920715 C95.5485701 -0.11482666 96.559039 -0.12044617 97.60012817 -0.12623596 C98.97779861 -0.11994423 98.97779861 -0.11994423 100.38330078 -0.11352539 C101.18396186 -0.11407016 101.98462294 -0.11461493 102.80954647 -0.1151762 C104.75514221 0.13371277 104.75514221 0.13371277 106.75514221 2.13371277 C107.00514221 5.13371277 107.00514221 5.13371277 106.75514221 8.13371277 C104.32094027 10.56791471 103.72395172 10.38453511 100.39002991 10.38768005 C99.47302811 10.3933197 98.55602631 10.39895935 97.61123657 10.4047699 C96.60233871 10.40072144 95.59344086 10.39667297 94.55397034 10.39250183 C92.96364235 10.39775879 92.96364235 10.39775879 91.34118652 10.40312195 C87.82285592 10.41195276 84.304725 10.40608529 80.78639221 10.39933777 C78.35023459 10.40068403 75.91407723 10.40262423 73.47792053 10.40513611 C68.36668851 10.4080892 63.25552629 10.40378373 58.14430237 10.39445496 C51.57990717 10.38306038 45.01567551 10.38961885 38.45128632 10.40159988 C33.41913105 10.40881345 28.38701481 10.40653286 23.3548584 10.4013443 C20.93384787 10.40000641 18.51283384 10.40166036 16.09182739 10.40630341 C12.71322696 10.41136034 9.33489447 10.40367 5.95631409 10.39250183 C4.4429673 10.39857452 4.4429673 10.39857452 2.89904785 10.4047699 C1.98204605 10.39913025 1.06504425 10.3934906 0.12025452 10.38768005 C-1.07878887 10.38654898 -1.07878887 10.38654898 -2.30205536 10.38539505 C-4.24485779 10.13371277 -4.24485779 10.13371277 -6.24485779 8.13371277 C-5.53239045 0.01158517 -5.53239045 0.01158517 0 0 Z " fill="#EC6AB6" transform="translate(216.24485778808594,527.8662872314453)"/>
<path d="M0 0 C0.02688151 1.64574566 0.04634123 3.29161413 0.0625 4.9375 C0.07410156 5.85402344 0.08570313 6.77054688 0.09765625 7.71484375 C0 10 0 10 -1 11 C-2.89469671 11.10607944 -4.79096049 11.18468253 -6.6875 11.25 C-12.57150888 11.69077593 -15.10540297 12.59295599 -19 17 C-20.65505018 19.8013086 -21.25730022 21.88447847 -21.31884766 25.12597656 C-21.33871735 25.92650452 -21.35858704 26.72703247 -21.37905884 27.55181885 C-21.39638565 28.83327789 -21.39638565 28.83327789 -21.4140625 30.140625 C-21.43342865 31.02280701 -21.4527948 31.90498901 -21.4727478 32.81390381 C-21.53242848 35.62583816 -21.57888283 38.4378137 -21.625 41.25 C-21.66319038 43.15887181 -21.70224273 45.06772659 -21.7421875 46.9765625 C-21.83812058 51.65090296 -21.92219416 56.32532409 -22 61 C-25.96 61 -29.92 61 -34 61 C-34 40.87 -34 20.74 -34 0 C-31.03 0 -28.06 0 -25 0 C-24.01 2.64 -23.02 5.28 -22 8 C-21.62488281 7.51789062 -21.24976563 7.03578125 -20.86328125 6.5390625 C-15.71781739 0.18823809 -8.21324166 -4.10662083 0 0 Z " fill="#E56ABA" transform="translate(377,734)"/>
<path d="M0 0 C1.17369141 -0.00386719 1.17369141 -0.00386719 2.37109375 -0.0078125 C4.5625 0.125 4.5625 0.125 7.5625 1.125 C7.2325 4.755 6.9025 8.385 6.5625 12.125 C5.24185547 12.14626953 5.24185547 12.14626953 3.89453125 12.16796875 C-3.26629203 12.3250128 -3.26629203 12.3250128 -9.5625 15.3125 C-13.62972052 21.41333078 -14.8917487 25.82623057 -14.94921875 33.0234375 C-14.96716995 33.85839752 -14.98512115 34.69335754 -15.00361633 35.55361938 C-15.05749922 38.20236261 -15.09154361 40.85092794 -15.125 43.5 C-15.15819259 45.30341005 -15.19268404 47.1067967 -15.22851562 48.91015625 C-15.31321275 53.31497534 -15.38012834 57.7197437 -15.4375 62.125 C-19.0675 62.125 -22.6975 62.125 -26.4375 62.125 C-26.4375 41.995 -26.4375 21.865 -26.4375 1.125 C-23.4675 1.125 -20.4975 1.125 -17.4375 1.125 C-16.4375 2.125 -16.4375 2.125 -16.33984375 3.97265625 C-16.38867188 7.04882812 -16.38867188 7.04882812 -16.4375 10.125 C-15.7775 10.125 -15.1175 10.125 -14.4375 10.125 C-14.23125 9.568125 -14.025 9.01125 -13.8125 8.4375 C-10.70413825 3.2098007 -6.09236775 -0.02000778 0 0 Z " fill="#8D66EF" transform="translate(1644.4375,732.875)"/>
<path d="M0 0 C23.76 0 47.52 0 72 0 C72 3.63 72 7.26 72 11 C48.57 11 25.14 11 1 11 C0.67 7.37 0.34 3.74 0 0 Z " fill="#AA67DD" transform="translate(1172,407)"/>
<path d="M0 0 C3.96 0 7.92 0 12 0 C12 20.13 12 40.26 12 61 C8.04 61 4.08 61 0 61 C0 40.87 0 20.74 0 0 Z " fill="#B468D8" transform="translate(1057,734)"/>
<path d="M0 0 C3.96 0 7.92 0 12 0 C12 20.13 12 40.26 12 61 C8.04 61 4.08 61 0 61 C0 40.87 0 20.74 0 0 Z " fill="#C168CF" transform="translate(874,734)"/>
<path d="M0 0 C3.96 0 7.92 0 12 0 C12 20.13 12 40.26 12 61 C8.04 61 4.08 61 0 61 C0 40.87 0 20.74 0 0 Z " fill="#E36ABB" transform="translate(388,734)"/>
<path d="M0 0 C3.96 0 7.92 0 12 0 C12.02514475 4.83398073 12.04306491 9.66792153 12.05493164 14.50195312 C12.05989045 16.13867864 12.06665953 17.7753999 12.07543945 19.41210938 C12.22749522 48.53526013 12.22749522 48.53526013 10 56 C7.36 56 4.72 56 2 56 C-1.28607139 49.42785721 -0.13985059 39.74472499 -0.09765625 32.51953125 C-0.0962413 31.58066574 -0.09482635 30.64180023 -0.09336853 29.67448425 C-0.08783898 26.72045496 -0.07530045 23.76650579 -0.0625 20.8125 C-0.05747587 18.79101673 -0.05291458 16.76953226 -0.04882812 14.74804688 C-0.03789277 9.8320011 -0.02067824 4.91601406 0 0 Z " fill="#8667F3" transform="translate(1760,709)"/>
<path d="M0 0 C3.23729119 2.49541196 5.76300366 5.06410254 7 9 C7.45042231 14.58523668 7.25122574 18.23153558 4 23 C0.47905697 26.26331306 -2.30393216 27.28814732 -7 27.5 C-11.68905622 27.29551484 -14.44966389 26.20396186 -18 23 C-21.2020741 19.05077528 -21.51829445 16.01017972 -21 11 C-19.3348271 5.82919995 -17.57079843 2.97101898 -13 0 C-8.56403369 -1.47865544 -4.52701369 -1.06305273 0 0 Z " fill="#C068D0" transform="translate(892,324)"/>
<path d="M0 0 C1.52846661 3.05693322 1.23242445 5.62984547 1 9 C-0.0625 11.375 -0.0625 11.375 -2 13 C-5.45244415 13.87880397 -7.89042453 14.35986231 -11.3125 13.25 C-13 12 -13 12 -15 9 C-15.49819995 5.18046705 -15.30357932 3.48789534 -13.25 0.1875 C-8.50625375 -4.42447552 -5.67976687 -2.89346614 0 0 Z " fill="#C068D1" transform="translate(887,710)"/>
<path d="M0 0 C1.52846661 3.05693322 1.23242445 5.62984547 1 9 C-0.0625 11.375 -0.0625 11.375 -2 13 C-5.42890226 13.87281149 -7.89259577 14.32922829 -11.3125 13.3125 C-13.47719891 11.62884529 -14.21270916 10.64816011 -15 8 C-14.68292683 1.97560976 -14.68292683 1.97560976 -12.6875 -0.875 C-7.89027952 -4.07314699 -5.00229245 -2.54833766 0 0 Z " fill="#B568D7" transform="translate(1070,710)"/>
<path d="M0 0 C2.94427735 2.06895165 3.84332955 3.50909927 4.9375 6.9375 C5.01221891 10.59872681 4.21363944 12.1304674 2 15 C-1.09173752 16.54586876 -3.59429552 16.29359521 -7 16 C-9.4375 14.5 -9.4375 14.5 -11 12 C-11.60984064 9.19243175 -11.66017005 6.80141726 -11 4 C-7.74010218 0.16482609 -4.95707565 -0.84375756 0 0 Z " fill="#8666F4" transform="translate(1769,780)"/>
<path d="M0 0 C1.9375 1.6875 1.9375 1.6875 3 4 C3 8.21079371 2.6203953 10.27012317 -0.125 13.5 C-3.93532871 15.48799759 -5.91964404 15.20899436 -10 14 C-12.81972931 11.63506574 -12.97850831 10.1719335 -13.4375 6.5 C-13 3 -13 3 -11.1875 0.625 C-6.96854597 -2.50908013 -4.65543084 -2.03675099 0 0 Z " fill="#E26ABC" transform="translate(399,709)"/>
</svg>
